<svg xmlns="http://www.w3.org/2000/svg" viewBox="0 0 51.91 50.88"><defs><style>.cls-1{fill:#fff;}</style></defs><title>Hydro_footer</title><g id="Layer_2" data-name="Layer 2"><g id="Layer_1-2" data-name="Layer 1"><path class="cls-1" d="M25.59,2c-1.14,9.52,1.14,19,5.18,25.13-2.17-.21-4.28-.47-6.29-.76C19.83,20.85,17,10.92,18.81,0c-.42,0-.85,0-1.27,0a17.55,17.55,0,0,0-3.81.42c-1.8,10.06,1,19.56,6.62,25.11-1.52-.26-2.92-.53-4.2-.79C10.5,19.47,7.7,10.95,8.86,2.3A17.56,17.56,0,0,0,5.42,4.86c-.71,9.33,3.75,16.34,8.2,19.51l-2-.45A19.81,19.81,0,0,1,2.92,7.84,17.56,17.56,0,0,0,3,27.4H16V28H3.49A17.54,17.54,0,1,0,25.59,2"/><polyline class="cls-1" points="17.53 40.35 18.98 40.35 18.98 44.84 20.9 44.84 20.9 40.35 22.35 40.35 22.35 50.8 20.9 50.8 20.9 46.05 18.98 46.05 18.98 50.8 17.53 50.8 17.53 40.35"/><polyline class="cls-1" points="24.34 40.35 25.78 40.35 27.04 44.75 27.07 44.75 28.52 40.35 29.79 40.35 27.78 46.52 27.78 50.8 26.33 50.8 26.33 46.52 24.34 40.35"/><path class="cls-1" d="M31.78,40.35H34.1c2.34,0,2.53.78,2.53,3.82v3.11c0,2.68-.48,3.51-2.76,3.51h-2.1V40.35m1.45,9.23h.69c1.07,0,1.27-.56,1.27-2.36V43.64c0-1.55-.16-2.07-1.39-2.07h-.58Z"/><path class="cls-1" d="M47,43c0-1.46.48-2.75,2.44-2.75s2.46,1,2.46,2.59v5.28c0,1.46-.48,2.75-2.46,2.75S47,49.91,47,48.29V43m1.45,5.37c0,.9.41,1.37,1,1.37s1-.48,1-1.37V42.9c0-1-.35-1.5-1-1.5s-1,.48-1,1.5Z"/><path class="cls-1" d="M42.54,50.79H44V47.2c0-1-.33-1.49-1.32-1.59v0c1.19-.36,1.37-1,1.37-2.37,0-2.29-.22-2.85-2.33-2.85H39.47V50.8h1.45V46.25h.49c1,0,1.13.26,1.13,1.24v3.29M41.29,45h-.38V41.57h.69c.9,0,1,.14,1,1.69S42.44,45,41.29,45Z"/></g></g></svg>