<?xml version="1.0" encoding="UTF-8" standalone="no"?>
<!DOCTYPE svg PUBLIC "-//W3C//DTD SVG 1.1//EN" "http://www.w3.org/Graphics/SVG/1.1/DTD/svg11.dtd">
<svg width="100%" height="100%" viewBox="0 0 486 122" version="1.1" xmlns="http://www.w3.org/2000/svg" xmlns:xlink="http://www.w3.org/1999/xlink" xml:space="preserve" xmlns:serif="http://www.serif.com/" style="fill-rule:evenodd;clip-rule:evenodd;stroke-linejoin:round;stroke-miterlimit:1.41421;">
    <g transform="matrix(1,0,0,1,-4.23378,-4.97427)">
        <path id="path8" d="M4.234,5.019C43.216,4.991 82.198,5.019 121.18,5.002C121.169,16.87 121.174,28.738 121.18,40.601C109.989,40.629 98.803,40.601 87.617,40.617C87.617,69.074 87.612,97.536 87.623,125.998C71.387,125.981 55.145,126.003 38.909,125.981C38.943,97.53 38.904,69.079 38.932,40.629C27.371,40.589 15.811,40.629 4.245,40.606C4.239,28.744 4.267,16.881 4.234,5.019Z" style="fill:white;fill-rule:nonzero;"/>
        <path id="path10" d="M154.922,4.974C171.857,5.053 188.792,4.997 205.727,4.997C221.393,45.343 237.081,85.679 252.768,126.015C236.957,125.964 221.141,125.992 205.33,126.003C197.019,102.167 188.798,78.296 180.548,54.437C180.101,54.991 179.832,55.645 179.62,56.317C171.717,79.544 163.742,102.743 155.85,125.975C140.224,126.015 124.603,125.981 108.977,125.992C124.217,85.623 139.541,45.282 154.922,4.974Z" style="fill:white;fill-rule:nonzero;"/>
        <path id="path12" d="M241.566,4.974C280.543,5.053 319.519,4.985 358.496,5.008C358.507,16.876 358.501,28.744 358.501,40.612C347.315,40.617 336.13,40.606 324.944,40.612C324.938,69.074 324.955,97.536 324.938,125.992C308.702,126.009 292.472,125.953 276.236,126.02C276.102,97.558 276.219,69.085 276.18,40.617C264.62,40.606 253.065,40.617 241.504,40.606C241.544,28.733 241.421,16.853 241.566,4.974Z" style="fill:white;fill-rule:nonzero;"/>
        <path id="path14" d="M392.125,4.991C409.055,5.025 425.984,5.008 442.914,5.002C458.63,45.327 474.306,85.668 489.966,126.015C474.15,125.959 458.333,126.009 442.517,125.992C434.223,102.049 425.979,78.095 417.64,54.169C409.329,78.073 401.275,102.066 393.026,125.998C377.405,126.003 361.784,125.964 346.163,126.015C361.46,85.662 376.739,45.31 392.125,4.991Z" style="fill:white;fill-rule:nonzero;"/>
    </g>
</svg>
