<?xml version="1.0" encoding="UTF-8" standalone="no"?>
<!DOCTYPE svg PUBLIC "-//W3C//DTD SVG 1.1//EN" "http://www.w3.org/Graphics/SVG/1.1/DTD/svg11.dtd">
<svg width="100%" height="100%" viewBox="0 0 512 512" version="1.1" xmlns="http://www.w3.org/2000/svg" xmlns:xlink="http://www.w3.org/1999/xlink" xml:space="preserve" xmlns:serif="http://www.serif.com/" style="fill-rule:evenodd;clip-rule:evenodd;stroke-linejoin:round;stroke-miterlimit:1.41421;">
    <path d="M0,24C0,17.635 2.529,11.53 7.029,7.029C11.53,2.529 17.635,0 24,0C109.976,0 402.024,0 488,0C494.365,0 500.47,2.529 504.971,7.029C509.471,11.53 512,17.635 512,24C512,109.976 512,402.024 512,488C512,494.365 509.471,500.47 504.971,504.971C500.47,509.471 494.365,512 488,512C402.024,512 109.976,512 24,512C17.635,512 11.53,509.471 7.029,504.971C2.529,500.47 0,494.365 0,488C0,402.024 0,109.976 0,24ZM206,306L150.846,306L168.771,323.925L89.031,403.665L108.335,422.969L188.075,343.229L206,361.154L206,306ZM422.969,403.665L403.665,422.969L323.925,343.229L306,361.154L306,306L361.154,306L343.229,323.925L422.969,403.665ZM256,206C283.596,206 306,228.404 306,256C306,283.596 283.596,306 256,306C228.404,306 206,283.596 206,256C206,228.404 228.404,206 256,206ZM206,206L206,150.846L188.075,168.771L108.335,89.031L89.031,108.335L168.771,188.075L150.846,206L206,206ZM422.969,108.335L403.665,89.031L323.925,168.771L306,150.846L306,206L361.154,206L343.229,188.075L422.969,108.335Z" style="fill:rgb(182,169,155);"/>
</svg>
