<?xml version="1.0" encoding="UTF-8" standalone="no"?>
<!DOCTYPE svg PUBLIC "-//W3C//DTD SVG 1.1//EN" "http://www.w3.org/Graphics/SVG/1.1/DTD/svg11.dtd">
<svg width="100%" height="100%" viewBox="0 0 512 512" version="1.1" xmlns="http://www.w3.org/2000/svg" xmlns:xlink="http://www.w3.org/1999/xlink" xml:space="preserve" xmlns:serif="http://www.serif.com/" style="fill-rule:evenodd;clip-rule:evenodd;stroke-linejoin:round;stroke-miterlimit:1.41421;">
    <path d="M0,24C0,17.635 2.529,11.53 7.029,7.029C11.53,2.529 17.635,0 24,0C109.976,0 402.024,0 488,0C494.365,0 500.47,2.529 504.971,7.029C509.471,11.53 512,17.635 512,24C512,109.976 512,402.024 512,488C512,494.365 509.471,500.47 504.971,504.971C500.47,509.471 494.365,512 488,512C402.024,512 109.976,512 24,512C17.635,512 11.53,509.471 7.029,504.971C2.529,500.47 0,494.365 0,488C0,402.024 0,109.976 0,24ZM370,400L370,420L430,420L430,400L370,400ZM450,360L450,120L150,120L150,360L270,360L270,390L170,390L170,420L350,420L350,390L330,390L330,360L450,360ZM318,390L282,390L282,372L318,372L318,390ZM438,132L438,348L162,348L162,132L438,132ZM112.5,200L77.5,200C67.841,200 60,207.978 60,217.805L60,302.195C60,312.022 67.841,320 77.5,320L112.5,320C122.159,320 130,312.022 130,302.195L130,217.805C130,207.978 122.159,200 112.5,200ZM95,292.683C99.763,292.683 103.63,296.617 103.63,301.463C103.63,306.309 99.763,310.244 95,310.244C90.237,310.244 86.37,306.309 86.37,301.463C86.37,296.617 90.237,292.683 95,292.683Z" style="fill:rgb(182,169,155);"/>
</svg>
