<?xml version="1.0" encoding="UTF-8" standalone="no"?>
<!DOCTYPE svg PUBLIC "-//W3C//DTD SVG 1.1//EN" "http://www.w3.org/Graphics/SVG/1.1/DTD/svg11.dtd">
<svg width="100%" height="100%" viewBox="0 0 512 512" version="1.1" xmlns="http://www.w3.org/2000/svg" xmlns:xlink="http://www.w3.org/1999/xlink" xml:space="preserve" xmlns:serif="http://www.serif.com/" style="fill-rule:evenodd;clip-rule:evenodd;stroke-linejoin:round;stroke-miterlimit:1.41421;">
    <path d="M0,24C0,17.635 2.529,11.53 7.029,7.029C11.53,2.529 17.635,0 24,0C109.976,0 402.024,0 488,0C494.365,0 500.47,2.529 504.971,7.029C509.471,11.53 512,17.635 512,24C512,109.976 512,402.024 512,488C512,494.365 509.471,500.47 504.971,504.971C500.47,509.471 494.365,512 488,512C402.024,512 109.976,512 24,512C17.635,512 11.53,509.471 7.029,504.971C2.529,500.47 0,494.365 0,488C0,402.024 0,109.976 0,24ZM92,340L114.157,340C114.622,352.945 116.382,365.632 122.678,376.348C129.326,387.661 140.934,394.742 153.001,398.661C176.737,406.367 201.5,405.983 225.995,406.005L226.005,394.005L218.976,393.999C204.773,393.96 190.558,393.528 176.538,391.569C163.402,389.734 149.19,386.932 139.061,377.712C128.225,367.848 126.401,353.911 126.077,340L148,340L120,310L92,340ZM450,110L240,110L240,180L220,180L220,300L240,300L240,390L450,390L450,110ZM438,378L252,378L252,300L280,300L280,350L410,350L410,340L410,310L410,300L410,270L410,260L410,230L410,220L410,195L410,185L410,150L280,150L280,180L252,180L252,122L438,122L438,378ZM324.348,340L290,340L290,310L324.348,310L324.348,340ZM362.395,340L334.348,340L334.348,310L362.395,310L362.395,340ZM400,340L372.395,340L372.395,310L400,310L400,340ZM324.348,300L290,300L324.348,300ZM362.395,300L334.348,300L362.395,300ZM400,300L372.395,300L380,300L380,270L400,270L400,300ZM120,200C147.596,200 170,222.404 170,250C170,277.596 147.596,300 120,300C92.404,300 70,277.596 70,250C70,222.404 92.404,200 120,200ZM280.783,280L256,280L284.851,238.795L257.205,200L283.043,200L297.205,221.996L312.121,200L336.979,200L309.861,237.891L339.465,280L313.476,280L297.205,255.217L280.783,280ZM400,260L380,260L380,230L400,230L400,260ZM400,220L380,220L380,195L400,195L400,220ZM400,185L380,185L380,180L372.395,180L372.395,160L400,160L400,185ZM200,148L230,120L200,92L200,114L199.526,114C195.246,114.012 190.967,114.118 186.694,114.367C166.767,115.527 144.696,119.57 129.771,133.667C116.977,145.75 114.019,163.072 113.99,179.989L125.989,180.01L126,173.758C126.042,165.824 127.486,157.748 131.36,150.872C137.112,140.662 147.88,134.369 159.06,130.947C172.447,126.849 186.247,126.142 200,126.02L200,148ZM324.348,180L290,180L290,160L324.348,160L324.348,180ZM362.395,180L334.348,180L334.348,160L362.395,160L362.395,180Z" style="fill:rgb(182,169,155);"/>
</svg>
