<?xml version="1.0" encoding="UTF-8" standalone="no"?>
<!DOCTYPE svg PUBLIC "-//W3C//DTD SVG 1.1//EN" "http://www.w3.org/Graphics/SVG/1.1/DTD/svg11.dtd">
<svg width="100%" height="100%" viewBox="0 0 512 512" version="1.1" xmlns="http://www.w3.org/2000/svg" xmlns:xlink="http://www.w3.org/1999/xlink" xml:space="preserve" xmlns:serif="http://www.serif.com/" style="fill-rule:evenodd;clip-rule:evenodd;stroke-linejoin:round;stroke-miterlimit:1.41421;">
    <path d="M0,24C0,17.635 2.529,11.53 7.029,7.029C11.53,2.529 17.635,0 24,0C109.976,0 402.024,0 488,0C494.365,0 500.47,2.529 504.971,7.029C509.471,11.53 512,17.635 512,24C512,109.976 512,402.024 512,488C512,494.365 509.471,500.47 504.971,504.971C500.47,509.471 494.365,512 488,512C402.024,512 109.976,512 24,512C17.635,512 11.53,509.471 7.029,504.971C2.529,500.47 0,494.365 0,488C0,402.024 0,109.976 0,24ZM256,272L98,272L98,430L256,430L256,272ZM296.449,86.001C340.366,86.21 383.606,108.38 409.341,144.557C438.611,185.703 443.165,242.964 419.599,288.612C396.409,333.534 347.705,363.89 296,364L296,229L157.101,229L157,225C157.057,189.158 171.485,153.596 196.559,127.918C222.199,101.66 258.569,86.292 295.102,86.003C295.551,86.001 296,86 296.449,86.001ZM296.411,98.001C313.848,98.084 331.241,101.712 347.178,108.748C381.183,123.759 407.833,154.272 418.073,189.871C430.865,234.342 417.345,283.585 385.258,315.296C364.63,335.682 336.863,348.717 308,351.434L308,229C307.864,227.965 307.861,226.903 307.591,225.894C306.506,221.843 303.046,219.041 299.106,217.409L296,217C296,217 169.258,216.839 169.258,216.839C170.715,194.454 178.161,172.572 190.695,154.026C213.827,119.798 254.122,98.198 295.589,98.001L296.411,98.001Z" style="fill:rgb(182,169,155);"/>
</svg>
