<?xml version="1.0" encoding="UTF-8" standalone="no"?>
<!DOCTYPE svg PUBLIC "-//W3C//DTD SVG 1.1//EN" "http://www.w3.org/Graphics/SVG/1.1/DTD/svg11.dtd">
<svg width="100%" height="100%" viewBox="0 0 512 512" version="1.1" xmlns="http://www.w3.org/2000/svg" xmlns:xlink="http://www.w3.org/1999/xlink" xml:space="preserve" xmlns:serif="http://www.serif.com/" style="fill-rule:evenodd;clip-rule:evenodd;stroke-linejoin:round;stroke-miterlimit:1.41421;">
    <path d="M0,24C0,17.635 2.529,11.53 7.029,7.029C11.53,2.529 17.635,0 24,0C109.976,0 402.024,0 488,0C494.365,0 500.47,2.529 504.971,7.029C509.471,11.53 512,17.635 512,24C512,109.976 512,402.024 512,488C512,494.365 509.471,500.47 504.971,504.971C500.47,509.471 494.365,512 488,512C402.024,512 109.976,512 24,512C17.635,512 11.53,509.471 7.029,504.971C2.529,500.47 0,494.365 0,488C0,402.024 0,109.976 0,24ZM233.774,235.413C234.749,206.58 245.781,177.796 266.902,157.976C280.99,144.755 298.377,134.828 317.813,134.429C318.245,134.423 318.676,134.419 319.108,134.42C342.8,134.551 364.902,148.433 381.26,164.124C382.021,164.854 382.776,165.59 383.525,166.333C383.245,165.666 383.076,164.936 383.048,164.166C382.976,162.258 382.938,160.349 382.944,158.44C382.944,158.44 383.115,155.72 384.528,154.183C385.772,152.831 387.582,152.174 389.524,152.273C394.048,152.924 394.798,157.939 395.051,163.993C395.051,163.993 394.291,169.194 390.403,170.09C389.187,170.37 387.945,170.209 386.836,169.717C387.18,170.079 387.522,170.443 387.862,170.809C388.694,170.367 389.712,170.133 390.954,170.246C393.5,170.719 394.785,172.695 395.663,175.334C395.912,175.211 396.163,175.09 396.416,174.972C402.094,172.319 408.334,170.981 414.643,171.001C434.052,171.186 452.257,186.043 456.056,205.199C458.796,219.013 454.141,234.053 444.052,243.905C432.324,255.356 413.725,259.16 398.31,252.857C384.705,247.294 374.448,234.237 372.319,219.705C370.457,206.997 375.047,193.733 383.723,184.336C373.548,171.901 361.285,161.088 346.942,153.767C330.819,145.538 311.16,143.909 294.662,152.659C275.98,162.567 261.075,179.349 253.217,199.115C247.61,213.221 244.731,228.667 245.651,243.75C249.109,242.887 252.681,242.458 256.275,242.469C275.684,242.654 293.889,257.512 297.688,276.667C300.428,290.481 295.773,305.521 285.683,315.373C273.956,326.824 255.357,330.628 239.942,324.325C226.337,318.762 216.08,305.705 213.951,291.173C211.638,275.395 219.274,258.759 232.326,249.731C215.274,234.876 191.897,225.773 170.365,233.853C160.78,237.45 152.568,244.083 145.487,251.36C121.081,276.439 107.707,311.919 109.161,347.03C109.232,348.748 109.458,351.295 109.458,351.295C109.494,351.801 109.521,351.929 109.484,352.436L109.481,352.476C126.641,355.164 141.765,368.936 145.188,386.199C147.928,400.013 143.273,415.053 133.183,424.905C121.456,436.356 102.857,440.16 87.442,433.857C73.837,428.294 63.58,415.237 61.451,400.705C58.818,382.742 69.08,363.666 85.547,355.972C89.338,354.201 93.379,353.016 97.524,352.43C97.495,352.242 97.471,352.049 97.452,351.85C93.561,311.105 110.259,268.226 140.694,239.223C153.191,227.315 169.287,218.901 186.974,218.774C187.16,218.773 187.345,218.773 187.531,218.773C204.255,218.882 220.58,225.661 233.774,235.413ZM103.302,364.001C89.508,364.133 76.532,374.567 73.659,388.162C69.618,407.276 87.402,428.509 109.094,424.489C121.546,422.181 131.94,411.362 133.703,398.775C136.089,381.753 122.001,364.176 103.698,364.001C103.566,364 103.434,364 103.302,364.001ZM255.801,254.469C242.027,254.6 229.033,265.035 226.159,278.631C222.101,297.826 240.147,319.072 261.78,314.922C274.146,312.55 284.447,301.778 286.203,289.244C288.579,272.288 274.615,254.644 256.199,254.469C256.066,254.469 255.934,254.469 255.801,254.469ZM414.17,183.001C400.439,183.131 387.517,193.436 384.567,206.977C380.404,226.082 398.02,247.555 419.962,243.489C432.314,241.2 442.711,230.478 444.544,217.965C447.016,201.097 433.319,183.414 414.963,183.006C414.698,183.002 414.434,183 414.17,183.001ZM390.685,134.325C394.928,134.774 396.514,139.041 395.881,143.926C395.728,145.135 395.544,146.87 395.544,146.87C394.848,151.565 388.354,153.894 385.106,150.27C383.803,148.817 383.413,147.267 383.788,143.969C384.004,142.088 384.399,139.408 384.399,139.408C384.991,136.453 387.555,134.284 390.685,134.325ZM402.334,100.367C406.654,101.077 408.631,105.872 406.364,110.23C405.525,111.855 404.366,114.254 404.366,114.254C402.95,116.92 399.85,118.252 396.904,117.33C396.904,117.33 401.591,120.392 400.052,125.122C399.97,125.374 399.89,125.626 399.81,125.878C399.275,127.583 398.576,130.114 398.576,130.114C397.466,133.628 395.909,133.893 394.52,134.314C390.335,135.584 385.831,131.279 387.121,126.504C387.624,124.643 388.181,122.801 388.784,120.973C388.784,120.973 389.977,118.265 392.053,117.341C393.55,116.675 395.282,116.706 396.842,117.306C396.842,117.306 391.353,113.649 393.785,108.563C393.923,108.274 394.064,107.987 394.204,107.699C395.973,104.064 397.946,100.058 402.334,100.367ZM411.306,84.978C415.814,85.413 418.422,90.778 415.76,94.644C415.527,94.983 415.296,95.322 415.066,95.661C414.11,97.076 412.745,99.19 412.745,99.19C411.565,100.866 410.921,101.163 409.78,101.588C406.678,102.745 402.788,100.838 401.893,97.534C400.873,93.767 403.99,89.48 406.78,86.711C407.953,85.547 409.547,84.971 411.306,84.978ZM422.353,70.732C426.808,71.208 429.619,76.677 426.554,80.619C426.185,81.05 425.819,81.485 425.454,81.92C424.351,83.24 422.856,85.097 422.856,85.097C419.305,89.136 416.769,87.608 414.871,86.358C412.113,84.541 411.475,80.365 413.487,77.598C414.723,76.054 415.982,74.524 417.266,73.016C417.266,73.016 418.957,71.247 420.7,70.862C421.734,70.634 422.007,70.727 422.353,70.732ZM434.663,57.605C439.421,58.116 442.023,64.441 438.29,68.082C438.023,68.342 437.757,68.604 437.491,68.865C436.187,70.156 434.375,72.012 434.375,72.012C430.462,75.703 428.08,73.944 426.307,72.522C423.726,70.452 423.486,66.239 425.748,63.672C427.12,62.252 428.511,60.856 429.922,59.481C429.922,59.481 431.508,58.065 433.01,57.734C434.044,57.507 434.317,57.6 434.663,57.605ZM446.678,47.119C451.569,47.762 453.955,54.64 449.661,57.983C449.49,58.117 449.32,58.252 449.15,58.387C448.282,59.082 447.051,60.111 447.051,60.111C443.289,63.002 436.998,60.205 437.184,55.301C437.273,52.931 438.944,51.095 442.43,48.405C442.43,48.405 443.788,47.45 445.022,47.209C446.062,47.006 446.332,47.106 446.678,47.119Z" style="fill:rgb(182,169,155);"/>
</svg>
