<?xml version="1.0" encoding="UTF-8" standalone="no"?>
<!DOCTYPE svg PUBLIC "-//W3C//DTD SVG 1.1//EN" "http://www.w3.org/Graphics/SVG/1.1/DTD/svg11.dtd">
<svg width="100%" height="100%" viewBox="0 0 512 512" version="1.1" xmlns="http://www.w3.org/2000/svg" xmlns:xlink="http://www.w3.org/1999/xlink" xml:space="preserve" xmlns:serif="http://www.serif.com/" style="fill-rule:evenodd;clip-rule:evenodd;stroke-linejoin:round;stroke-miterlimit:1.41421;">
    <g>
        <path d="M0,24C0,17.635 2.529,11.53 7.029,7.029C11.53,2.529 17.635,0 24,0C109.976,0 402.024,0 488,0C494.365,0 500.47,2.529 504.971,7.029C509.471,11.53 512,17.635 512,24C512,109.976 512,402.024 512,488C512,494.365 509.471,500.47 504.971,504.971C500.47,509.471 494.365,512 488,512C402.024,512 109.976,512 24,512C17.635,512 11.53,509.471 7.029,504.971C2.529,500.47 0,494.365 0,488C0,402.024 0,109.976 0,24ZM366,312L366,256L306,256L306,312L216,312L216,256L156,256L156,312L96,312L96,424L426,424L426,312L366,312ZM204,324L318,324L318,268L354,268L354,324L414,324L414,412L108,412L108,324L168,324L168,268L204,268L204,324ZM274,278L274,110L96,110L96,278L144,278L144,222L228,222L228,278L274,278Z" style="fill:rgb(182,169,155);"/>
    </g>
</svg>
