<?xml version="1.0" encoding="UTF-8" standalone="no"?>
<!DOCTYPE svg PUBLIC "-//W3C//DTD SVG 1.1//EN" "http://www.w3.org/Graphics/SVG/1.1/DTD/svg11.dtd">
<svg width="100%" height="100%" viewBox="0 0 512 512" version="1.1" xmlns="http://www.w3.org/2000/svg" xmlns:xlink="http://www.w3.org/1999/xlink" xml:space="preserve" xmlns:serif="http://www.serif.com/" style="fill-rule:evenodd;clip-rule:evenodd;stroke-linejoin:round;stroke-miterlimit:1.41421;">
    <g transform="matrix(1.50742,0,0,1.50742,-206.024,-156.279)">
        <path d="M391.022,105L391.295,105.002L391.566,105.004L391.838,105.007L392.11,105.011L392.381,105.016L392.652,105.021L392.923,105.028L393.194,105.035L393.464,105.043L393.735,105.052L394.005,105.062L394.275,105.073L394.544,105.084L394.814,105.096L395.083,105.11L395.352,105.124L395.62,105.139L395.889,105.154L396.157,105.171L396.425,105.189L396.693,105.207L396.961,105.226L397.228,105.246L397.495,105.267L397.762,105.288L398.029,105.311L398.295,105.334L398.562,105.358L398.828,105.383L399.093,105.409L399.359,105.435L399.624,105.463L399.889,105.491L400.154,105.52L400.419,105.55L400.683,105.581L400.947,105.612L401.211,105.644L401.474,105.677L401.737,105.711L402,105.746L402.263,105.782L402.526,105.818L402.788,105.855L403.05,105.893L403.312,105.932L403.573,105.971L403.834,106.012L404.095,106.053L404.356,106.095L404.617,106.138L404.877,106.181L405.137,106.226L405.396,106.271L405.656,106.317L405.915,106.364L406.173,106.411L406.432,106.46L406.69,106.509L406.948,106.559L407.206,106.609L407.463,106.661L407.72,106.713L407.977,106.766L408.234,106.82L408.49,106.874L408.746,106.93L409.002,106.986L409.257,107.043L409.512,107.101L409.767,107.159L410.022,107.218L410.276,107.278L410.53,107.339L410.783,107.401L411.037,107.463L411.29,107.526L411.543,107.59L411.795,107.654L412.047,107.72L412.299,107.786L412.55,107.853L412.802,107.92L413.053,107.989L413.303,108.058L413.553,108.128L413.803,108.198L414.053,108.27L414.302,108.342L414.551,108.415L414.8,108.488L415.049,108.563L415.297,108.638L415.544,108.714L415.792,108.79L416.039,108.868L416.286,108.946L416.532,109.025L416.778,109.104L417.024,109.184L417.269,109.265L417.515,109.347L417.759,109.43L418.004,109.513L418.248,109.597L418.492,109.682L418.735,109.767L418.978,109.853L419.221,109.94L419.463,110.027L419.705,110.116L419.947,110.205L420.189,110.294L420.43,110.385L420.67,110.476L420.911,110.568L421.151,110.661L421.39,110.754L421.63,110.848L421.868,110.942L422.107,111.038L422.345,111.134L422.583,111.231L422.821,111.328L423.058,111.427L423.294,111.526L423.531,111.625L423.767,111.725L424.002,111.827L424.238,111.928L424.473,112.031L424.707,112.134L424.941,112.238L425.175,112.342L425.409,112.447L425.642,112.553L425.874,112.66L426.107,112.767L426.338,112.875L426.57,112.983L426.801,113.093L427.032,113.203L427.262,113.313L427.492,113.425L427.722,113.537L427.951,113.649L428.18,113.763L428.408,113.877L428.636,113.991L428.864,114.107L429.091,114.223L429.318,114.339L429.545,114.457L429.771,114.575L429.996,114.693L430.221,114.813L430.446,114.933L430.671,115.053L430.895,115.175L431.118,115.297L431.342,115.419L431.564,115.543L431.787,115.667L432.009,115.791L432.23,115.916L432.451,116.042L432.672,116.169L432.892,116.296L433.112,116.424L433.332,116.552L433.551,116.682L433.77,116.811L433.988,116.942L434.206,117.073L434.423,117.204L434.64,117.337L434.856,117.47L435.072,117.603L435.288,117.737L435.503,117.872L435.718,118.008L435.932,118.144L436.146,118.281L436.36,118.418L436.573,118.556L436.785,118.695L436.997,118.834L437.209,118.974L437.42,119.114L437.631,119.255L437.841,119.397L438.051,119.539L438.261,119.682L438.47,119.826L438.678,119.97L438.886,120.114L439.094,120.26L439.301,120.406L439.508,120.552L439.714,120.7L439.92,120.847L440.125,120.996L440.33,121.145L440.534,121.294L440.738,121.444L440.942,121.595L441.145,121.747L441.347,121.899L441.549,122.051L441.751,122.204L441.952,122.358L442.153,122.512L442.353,122.667L442.552,122.823L442.752,122.979L442.95,123.136L443.149,123.293L443.346,123.451L443.544,123.609L443.74,123.768L443.937,123.928L444.133,124.088L444.328,124.249L444.523,124.41L444.717,124.572L444.911,124.734L445.104,124.897L445.297,125.061L445.489,125.225L445.681,125.39L445.873,125.555L446.064,125.721L446.254,125.887L446.444,126.054L446.633,126.222L446.822,126.39L447.01,126.559L447.198,126.728L447.385,126.898L447.572,127.068L447.759,127.239L447.944,127.41L448.13,127.582L448.314,127.755L448.499,127.928L448.682,128.101L448.865,128.275L449.048,128.45L449.23,128.625L449.412,128.801L449.593,128.977L449.774,129.154L449.954,129.332L450.133,129.509L450.312,129.688L450.491,129.867L450.668,130.046L450.846,130.226L451.023,130.407L451.199,130.588L451.375,130.77L451.55,130.952L451.725,131.135L451.899,131.318L452.072,131.501L452.245,131.686L452.418,131.87L452.59,132.056L452.761,132.241L452.932,132.428L453.102,132.615L453.272,132.802L453.441,132.99L453.61,133.178L453.778,133.367L453.946,133.556L454.113,133.746L454.279,133.936L454.445,134.127L454.61,134.319L454.775,134.511L454.939,134.703L455.103,134.896L455.266,135.089L455.428,135.283L455.59,135.477L455.751,135.672L455.912,135.867L456.072,136.063L456.232,136.26L456.391,136.456L456.549,136.654L456.707,136.851L456.864,137.05L457.021,137.248L457.177,137.448L457.333,137.647L457.488,137.847L457.642,138.048L457.796,138.249L457.949,138.451L458.101,138.653L458.253,138.855L458.405,139.058L458.556,139.262L458.706,139.466L458.855,139.67L459.004,139.875L459.153,140.08L459.3,140.286L459.448,140.492L459.594,140.699L459.74,140.906L459.886,141.114L460.03,141.322L460.174,141.53L460.318,141.739L460.461,141.949L460.603,142.159L460.745,142.369L460.886,142.58L461.026,142.791L461.166,143.003L461.305,143.215L461.444,143.427L461.582,143.64L461.719,143.854L461.856,144.068L461.992,144.282L462.128,144.497L462.263,144.712L462.397,144.928L462.53,145.144L462.663,145.36L462.796,145.577L462.927,145.794L463.058,146.012L463.189,146.23L463.318,146.449L463.448,146.668L463.576,146.888L463.704,147.108L463.831,147.328L463.958,147.549L464.084,147.77L464.209,147.991L464.333,148.213L464.457,148.436L464.581,148.658L464.703,148.882L464.825,149.105L464.947,149.329L465.067,149.554L465.187,149.779L465.307,150.004L465.425,150.229L465.543,150.455L465.661,150.682L465.777,150.909L465.893,151.136L466.009,151.364L466.123,151.592L466.237,151.82L466.351,152.049L466.463,152.278L466.575,152.508L466.687,152.738L466.797,152.968L466.907,153.199L467.017,153.43L467.125,153.662L467.233,153.893L467.34,154.126L467.447,154.358L467.553,154.591L467.658,154.825L467.762,155.059L467.866,155.293L467.969,155.527L468.072,155.762L468.173,155.998L468.275,156.233L468.375,156.469L468.474,156.706L468.573,156.942L468.672,157.179L468.769,157.417L468.866,157.655L468.962,157.893L469.058,158.132L469.152,158.37L469.246,158.61L469.339,158.849L469.432,159.089L469.524,159.33L469.615,159.57L469.706,159.811L469.795,160.053L469.884,160.295L469.973,160.537L470.06,160.779L470.147,161.022L470.233,161.265L470.318,161.508L470.403,161.752L470.487,161.996L470.57,162.241L470.653,162.485L470.735,162.731L470.816,162.976L470.896,163.222L470.975,163.468L471.054,163.714L471.132,163.961L471.21,164.208L471.286,164.456L471.362,164.703L471.437,164.951L471.512,165.2L471.585,165.449L471.658,165.698L471.73,165.947L471.802,166.197L471.872,166.447L471.942,166.697L472.011,166.947L472.08,167.198L472.147,167.45L472.214,167.701L472.28,167.953L472.346,168.205L472.41,168.457L472.474,168.71L472.537,168.963L472.599,169.217L472.661,169.47L472.722,169.724L472.782,169.978L472.841,170.233L472.899,170.488L472.957,170.743L473.014,170.998L473.07,171.254L473.126,171.51L473.18,171.766L473.234,172.023L473.287,172.28L473.339,172.537L473.391,172.794L473.441,173.052L473.491,173.31L473.54,173.568L473.589,173.827L473.636,174.085L473.683,174.344L473.729,174.604L473.774,174.863L473.819,175.123L473.862,175.383L473.905,175.644L473.947,175.905L473.988,176.166L474.029,176.427L474.068,176.688L474.107,176.95L474.145,177.212L474.182,177.474L474.218,177.737L474.254,178L474.289,178.263L474.323,178.526L474.356,178.789L474.388,179.053L474.419,179.317L474.45,179.581L474.48,179.846L474.509,180.111L474.537,180.376L474.565,180.641L474.591,180.907L474.617,181.172L474.642,181.438L474.666,181.705L474.689,181.971L474.712,182.238L474.733,182.505L474.754,182.772L474.774,183.039L474.793,183.307L474.811,183.575L474.829,183.843L474.846,184.111L474.861,184.38L474.876,184.648L474.89,184.917L474.904,185.186L474.916,185.456L474.927,185.725L474.938,185.995L474.948,186.265L474.957,186.536L474.965,186.806L474.972,187.077L474.979,187.348L474.984,187.619L474.989,187.89L474.993,188.162L474.996,188.434L474.998,188.705L475,188.978L475,189.25L475,357.75L475,358.022L474.998,358.295L474.996,358.566L474.993,358.838L474.989,359.11L474.984,359.381L474.979,359.652L474.972,359.923L474.965,360.194L474.957,360.464L474.948,360.735L474.938,361.005L474.927,361.275L474.916,361.544L474.904,361.814L474.89,362.083L474.876,362.352L474.861,362.62L474.846,362.889L474.829,363.157L474.811,363.425L474.793,363.693L474.774,363.961L474.754,364.228L474.733,364.495L474.712,364.762L474.689,365.029L474.666,365.295L474.642,365.562L474.617,365.828L474.591,366.093L474.565,366.359L474.537,366.624L474.509,366.889L474.48,367.154L474.45,367.419L474.419,367.683L474.388,367.947L474.356,368.211L474.323,368.474L474.289,368.737L474.254,369L474.218,369.263L474.182,369.526L474.145,369.788L474.107,370.05L474.068,370.312L474.029,370.573L473.988,370.834L473.947,371.095L473.905,371.356L473.862,371.617L473.819,371.877L473.774,372.137L473.729,372.396L473.683,372.656L473.636,372.915L473.589,373.173L473.54,373.432L473.491,373.69L473.441,373.948L473.391,374.206L473.339,374.463L473.287,374.72L473.234,374.977L473.18,375.234L473.126,375.49L473.07,375.746L473.014,376.002L472.957,376.257L472.899,376.512L472.841,376.767L472.782,377.022L472.722,377.276L472.661,377.53L472.599,377.783L472.537,378.037L472.474,378.29L472.41,378.543L472.346,378.795L472.28,379.047L472.214,379.299L472.147,379.55L472.08,379.802L472.011,380.053L471.942,380.303L471.872,380.553L471.802,380.803L471.73,381.053L471.658,381.302L471.585,381.551L471.512,381.8L471.437,382.049L471.362,382.297L471.286,382.544L471.21,382.792L471.132,383.039L471.054,383.286L470.975,383.532L470.896,383.778L470.816,384.024L470.735,384.269L470.653,384.515L470.57,384.759L470.487,385.004L470.403,385.248L470.318,385.492L470.233,385.735L470.147,385.978L470.06,386.221L469.973,386.463L469.884,386.705L469.795,386.947L469.706,387.189L469.615,387.43L469.524,387.67L469.432,387.911L469.339,388.151L469.246,388.39L469.152,388.63L469.058,388.868L468.962,389.107L468.866,389.345L468.769,389.583L468.672,389.821L468.573,390.058L468.474,390.294L468.375,390.531L468.275,390.767L468.173,391.002L468.072,391.238L467.969,391.473L467.866,391.707L467.762,391.941L467.658,392.175L467.553,392.409L467.447,392.642L467.34,392.874L467.233,393.107L467.125,393.338L467.017,393.57L466.907,393.801L466.797,394.032L466.687,394.262L466.575,394.492L466.463,394.722L466.351,394.951L466.237,395.18L466.123,395.408L466.009,395.636L465.893,395.864L465.777,396.091L465.661,396.318L465.543,396.545L465.425,396.771L465.307,396.996L465.187,397.221L465.067,397.446L464.947,397.671L464.825,397.895L464.703,398.118L464.581,398.342L464.457,398.564L464.333,398.787L464.209,399.009L464.084,399.23L463.958,399.451L463.831,399.672L463.704,399.892L463.576,400.112L463.448,400.332L463.318,400.551L463.189,400.77L463.058,400.988L462.927,401.206L462.796,401.423L462.663,401.64L462.53,401.856L462.397,402.072L462.263,402.288L462.128,402.503L461.992,402.718L461.856,402.932L461.719,403.146L461.582,403.36L461.444,403.573L461.305,403.785L461.166,403.997L461.026,404.209L460.886,404.42L460.745,404.631L460.603,404.841L460.461,405.051L460.318,405.261L460.174,405.47L460.03,405.678L459.886,405.886L459.74,406.094L459.594,406.301L459.448,406.508L459.3,406.714L459.153,406.92L459.004,407.125L458.855,407.33L458.706,407.534L458.556,407.738L458.405,407.942L458.253,408.145L458.101,408.347L457.949,408.549L457.796,408.751L457.642,408.952L457.488,409.153L457.333,409.353L457.177,409.552L457.021,409.752L456.864,409.95L456.707,410.149L456.549,410.346L456.391,410.544L456.232,410.74L456.072,410.937L455.912,411.133L455.751,411.328L455.59,411.523L455.428,411.717L455.266,411.911L455.103,412.104L454.939,412.297L454.775,412.489L454.61,412.681L454.445,412.873L454.279,413.064L454.113,413.254L453.946,413.444L453.778,413.633L453.61,413.822L453.441,414.01L453.272,414.198L453.102,414.385L452.932,414.572L452.761,414.759L452.59,414.944L452.418,415.13L452.245,415.314L452.072,415.499L451.899,415.682L451.725,415.865L451.55,416.048L451.375,416.23L451.199,416.412L451.023,416.593L450.846,416.774L450.668,416.954L450.491,417.133L450.312,417.312L450.133,417.491L449.954,417.668L449.774,417.846L449.593,418.023L449.412,418.199L449.23,418.375L449.048,418.55L448.865,418.725L448.682,418.899L448.499,419.072L448.314,419.245L448.13,419.418L447.944,419.59L447.759,419.761L447.572,419.932L447.385,420.102L447.198,420.272L447.01,420.441L446.822,420.61L446.633,420.778L446.444,420.946L446.254,421.113L446.064,421.279L445.873,421.445L445.681,421.61L445.489,421.775L445.297,421.939L445.104,422.103L444.911,422.266L444.717,422.428L444.523,422.59L444.328,422.751L444.133,422.912L443.937,423.072L443.74,423.232L443.544,423.391L443.346,423.549L443.149,423.707L442.95,423.864L442.752,424.021L442.552,424.177L442.353,424.333L442.153,424.488L441.952,424.642L441.751,424.796L441.549,424.949L441.347,425.101L441.145,425.253L440.942,425.405L440.738,425.556L440.534,425.706L440.33,425.855L440.125,426.004L439.92,426.153L439.714,426.3L439.508,426.448L439.301,426.594L439.094,426.74L438.886,426.886L438.678,427.03L438.47,427.174L438.261,427.318L438.051,427.461L437.841,427.603L437.631,427.745L437.42,427.886L437.209,428.026L436.997,428.166L436.785,428.305L436.573,428.444L436.36,428.582L436.146,428.719L435.932,428.856L435.718,428.992L435.503,429.128L435.288,429.263L435.072,429.397L434.856,429.53L434.64,429.663L434.423,429.796L434.206,429.927L433.988,430.058L433.77,430.189L433.551,430.318L433.332,430.448L433.112,430.576L432.892,430.704L432.672,430.831L432.451,430.958L432.23,431.084L432.009,431.209L431.787,431.333L431.564,431.457L431.342,431.581L431.118,431.703L430.895,431.825L430.671,431.947L430.446,432.067L430.221,432.187L429.996,432.307L429.771,432.425L429.545,432.543L429.318,432.661L429.091,432.777L428.864,432.893L428.636,433.009L428.408,433.123L428.18,433.237L427.951,433.351L427.722,433.463L427.492,433.575L427.262,433.687L427.032,433.797L426.801,433.907L426.57,434.017L426.338,434.125L426.107,434.233L425.874,434.34L425.642,434.447L425.409,434.553L425.175,434.658L424.941,434.762L424.707,434.866L424.473,434.969L424.238,435.072L424.002,435.173L423.767,435.275L423.531,435.375L423.294,435.474L423.058,435.573L422.821,435.672L422.583,435.769L422.345,435.866L422.107,435.962L421.868,436.058L421.63,436.152L421.39,436.246L421.151,436.339L420.911,436.432L420.67,436.524L420.43,436.615L420.189,436.706L419.947,436.795L419.705,436.884L419.463,436.973L419.221,437.06L418.978,437.147L418.735,437.233L418.492,437.318L418.248,437.403L418.004,437.487L417.759,437.57L417.515,437.653L417.269,437.735L417.024,437.816L416.778,437.896L416.532,437.975L416.286,438.054L416.039,438.132L415.792,438.21L415.544,438.286L415.297,438.362L415.049,438.437L414.8,438.512L414.551,438.585L414.302,438.658L414.053,438.73L413.803,438.802L413.553,438.872L413.303,438.942L413.053,439.011L412.802,439.08L412.55,439.147L412.299,439.214L412.047,439.28L411.795,439.346L411.543,439.41L411.29,439.474L411.037,439.537L410.783,439.599L410.53,439.661L410.276,439.722L410.022,439.782L409.767,439.841L409.512,439.899L409.257,439.957L409.002,440.014L408.746,440.07L408.49,440.126L408.234,440.18L407.977,440.234L407.72,440.287L407.463,440.339L407.206,440.391L406.948,440.441L406.69,440.491L406.432,440.54L406.173,440.589L405.915,440.636L405.656,440.683L405.396,440.729L405.137,440.774L404.877,440.819L404.617,440.862L404.356,440.905L404.095,440.947L403.834,440.988L403.573,441.029L403.312,441.068L403.05,441.107L402.788,441.145L402.526,441.182L402.263,441.218L402,441.254L401.737,441.289L401.474,441.323L401.211,441.356L400.947,441.388L400.683,441.419L400.419,441.45L400.154,441.48L399.889,441.509L399.624,441.537L399.359,441.565L399.093,441.591L398.828,441.617L398.562,441.642L398.295,441.666L398.029,441.689L397.762,441.712L397.495,441.733L397.228,441.754L396.961,441.774L396.693,441.793L396.425,441.811L396.157,441.829L395.889,441.846L395.62,441.861L395.352,441.876L395.083,441.89L394.814,441.904L394.544,441.916L394.275,441.927L394.005,441.938L393.735,441.948L393.464,441.957L393.194,441.965L392.923,441.972L392.652,441.979L392.381,441.984L392.11,441.989L391.838,441.993L391.566,441.996L391.295,441.998L391.022,442L390.75,442L222.25,442L221.978,442L221.705,441.998L221.434,441.996L221.162,441.993L220.89,441.989L220.619,441.984L220.348,441.979L220.077,441.972L219.806,441.965L219.536,441.957L219.265,441.948L218.995,441.938L218.725,441.927L218.456,441.916L218.186,441.904L217.917,441.89L217.648,441.876L217.38,441.861L217.111,441.846L216.843,441.829L216.575,441.811L216.307,441.793L216.039,441.774L215.772,441.754L215.505,441.733L215.238,441.712L214.971,441.689L214.705,441.666L214.438,441.642L214.172,441.617L213.907,441.591L213.641,441.565L213.376,441.537L213.111,441.509L212.846,441.48L212.581,441.45L212.317,441.419L212.053,441.388L211.789,441.356L211.526,441.323L211.263,441.289L211,441.254L210.737,441.218L210.474,441.182L210.212,441.145L209.95,441.107L209.688,441.068L209.427,441.029L209.166,440.988L208.905,440.947L208.644,440.905L208.383,440.862L208.123,440.819L207.863,440.774L207.604,440.729L207.344,440.683L207.085,440.636L206.827,440.589L206.568,440.54L206.31,440.491L206.052,440.441L205.794,440.391L205.537,440.339L205.28,440.287L205.023,440.234L204.766,440.18L204.51,440.126L204.254,440.07L203.998,440.014L203.743,439.957L203.488,439.899L203.233,439.841L202.978,439.782L202.724,439.722L202.47,439.661L202.217,439.599L201.963,439.537L201.71,439.474L201.457,439.41L201.205,439.346L200.953,439.28L200.701,439.214L200.45,439.147L200.198,439.08L199.947,439.011L199.697,438.942L199.447,438.872L199.197,438.802L198.947,438.73L198.698,438.658L198.449,438.585L198.2,438.512L197.951,438.437L197.703,438.362L197.456,438.286L197.208,438.21L196.961,438.132L196.714,438.054L196.468,437.975L196.222,437.896L195.976,437.816L195.731,437.735L195.485,437.653L195.241,437.57L194.996,437.487L194.752,437.403L194.508,437.318L194.265,437.233L194.022,437.147L193.779,437.06L193.537,436.973L193.295,436.884L193.053,436.795L192.811,436.706L192.57,436.615L192.33,436.524L192.089,436.432L191.849,436.339L191.61,436.246L191.37,436.152L191.132,436.058L190.893,435.962L190.655,435.866L190.417,435.769L190.179,435.672L189.942,435.573L189.706,435.474L189.469,435.375L189.233,435.275L188.998,435.173L188.762,435.072L188.527,434.969L188.293,434.866L188.059,434.762L187.825,434.658L187.591,434.553L187.358,434.447L187.126,434.34L186.893,434.233L186.662,434.125L186.43,434.017L186.199,433.907L185.968,433.797L185.738,433.687L185.508,433.575L185.278,433.463L185.049,433.351L184.82,433.237L184.592,433.123L184.364,433.009L184.136,432.893L183.909,432.777L183.682,432.661L183.455,432.543L183.229,432.425L183.004,432.307L182.779,432.187L182.554,432.067L182.329,431.947L182.105,431.825L181.882,431.703L181.658,431.581L181.436,431.457L181.213,431.333L180.991,431.209L180.77,431.084L180.549,430.958L180.328,430.831L180.108,430.704L179.888,430.576L179.668,430.448L179.449,430.318L179.23,430.189L179.012,430.058L178.794,429.927L178.577,429.796L178.36,429.663L178.144,429.53L177.928,429.397L177.712,429.263L177.497,429.128L177.282,428.992L177.068,428.856L176.854,428.719L176.64,428.582L176.427,428.444L176.215,428.305L176.003,428.166L175.791,428.026L175.58,427.886L175.369,427.745L175.159,427.603L174.949,427.461L174.739,427.318L174.53,427.174L174.322,427.03L174.114,426.886L173.906,426.74L173.699,426.594L173.492,426.448L173.286,426.3L173.08,426.153L172.875,426.004L172.67,425.855L172.466,425.706L172.262,425.556L172.058,425.405L171.855,425.253L171.653,425.101L171.451,424.949L171.249,424.796L171.048,424.642L170.847,424.488L170.647,424.333L170.448,424.177L170.248,424.021L170.05,423.864L169.851,423.707L169.654,423.549L169.456,423.391L169.26,423.232L169.063,423.072L168.867,422.912L168.672,422.751L168.477,422.59L168.283,422.428L168.089,422.266L167.896,422.103L167.703,421.939L167.511,421.775L167.319,421.61L167.127,421.445L166.936,421.279L166.746,421.113L166.556,420.946L166.367,420.778L166.178,420.61L165.99,420.441L165.802,420.272L165.615,420.102L165.428,419.932L165.241,419.761L165.056,419.59L164.87,419.418L164.686,419.245L164.501,419.072L164.318,418.899L164.135,418.725L163.952,418.55L163.77,418.375L163.588,418.199L163.407,418.023L163.226,417.846L163.046,417.668L162.867,417.491L162.688,417.312L162.509,417.133L162.332,416.954L162.154,416.774L161.977,416.593L161.801,416.412L161.625,416.23L161.45,416.048L161.275,415.865L161.101,415.682L160.928,415.499L160.755,415.314L160.582,415.13L160.41,414.944L160.239,414.759L160.068,414.572L159.898,414.385L159.728,414.198L159.559,414.01L159.39,413.822L159.222,413.633L159.054,413.444L158.887,413.254L158.721,413.064L158.555,412.873L158.39,412.681L158.225,412.489L158.061,412.297L157.897,412.104L157.734,411.911L157.572,411.717L157.41,411.523L157.249,411.328L157.088,411.133L156.928,410.937L156.768,410.74L156.609,410.544L156.451,410.346L156.293,410.149L156.136,409.95L155.979,409.752L155.823,409.552L155.667,409.353L155.512,409.153L155.358,408.952L155.204,408.751L155.051,408.549L154.899,408.347L154.747,408.145L154.595,407.942L154.444,407.738L154.294,407.534L154.145,407.33L153.996,407.125L153.847,406.92L153.7,406.714L153.552,406.508L153.406,406.301L153.26,406.094L153.114,405.886L152.97,405.678L152.826,405.47L152.682,405.261L152.539,405.051L152.397,404.841L152.255,404.631L152.114,404.42L151.974,404.209L151.834,403.997L151.695,403.785L151.556,403.573L151.418,403.36L151.281,403.146L151.144,402.932L151.008,402.718L150.872,402.503L150.737,402.288L150.603,402.072L150.47,401.856L150.337,401.64L150.204,401.423L150.073,401.206L149.942,400.988L149.811,400.77L149.682,400.551L149.552,400.332L149.424,400.112L149.296,399.892L149.169,399.672L149.042,399.451L148.916,399.23L148.791,399.009L148.667,398.787L148.543,398.564L148.419,398.342L148.297,398.118L148.175,397.895L148.053,397.671L147.933,397.446L147.813,397.221L147.693,396.996L147.575,396.771L147.457,396.545L147.339,396.318L147.223,396.091L147.107,395.864L146.991,395.636L146.877,395.408L146.763,395.18L146.649,394.951L146.537,394.722L146.425,394.492L146.313,394.262L146.203,394.032L146.093,393.801L145.983,393.57L145.875,393.338L145.767,393.107L145.66,392.874L145.553,392.642L145.447,392.409L145.342,392.175L145.238,391.941L145.134,391.707L145.031,391.473L144.928,391.238L144.827,391.002L144.725,390.767L144.625,390.531L144.526,390.294L144.427,390.058L144.328,389.821L144.231,389.583L144.134,389.345L144.038,389.107L143.942,388.868L143.848,388.63L143.754,388.39L143.661,388.151L143.568,387.911L143.476,387.67L143.385,387.43L143.294,387.189L143.205,386.947L143.116,386.705L143.027,386.463L142.94,386.221L142.853,385.978L142.767,385.735L142.682,385.492L142.597,385.248L142.513,385.004L142.43,384.759L142.347,384.515L142.265,384.269L142.184,384.024L142.104,383.778L142.025,383.532L141.946,383.286L141.868,383.039L141.79,382.792L141.714,382.544L141.638,382.297L141.563,382.049L141.488,381.8L141.415,381.551L141.342,381.302L141.27,381.053L141.198,380.803L141.128,380.553L141.058,380.303L140.989,380.053L140.92,379.802L140.853,379.55L140.786,379.299L140.72,379.047L140.654,378.795L140.59,378.543L140.526,378.29L140.463,378.037L140.401,377.783L140.339,377.53L140.278,377.276L140.218,377.022L140.159,376.767L140.101,376.512L140.043,376.257L139.986,376.002L139.93,375.746L139.874,375.49L139.82,375.234L139.766,374.977L139.713,374.72L139.661,374.463L139.609,374.206L139.559,373.948L139.509,373.69L139.46,373.432L139.411,373.173L139.364,372.915L139.317,372.656L139.271,372.396L139.226,372.137L139.181,371.877L139.138,371.617L139.095,371.356L139.053,371.095L139.012,370.834L138.971,370.573L138.932,370.312L138.893,370.05L138.855,369.788L138.818,369.526L138.782,369.263L138.746,369L138.711,368.737L138.677,368.474L138.644,368.211L138.612,367.947L138.581,367.683L138.55,367.419L138.52,367.154L138.491,366.889L138.463,366.624L138.435,366.359L138.409,366.093L138.383,365.828L138.358,365.562L138.334,365.295L138.311,365.029L138.288,364.762L138.267,364.495L138.246,364.228L138.226,363.961L138.207,363.693L138.189,363.425L138.171,363.157L138.154,362.889L138.139,362.62L138.124,362.352L138.11,362.083L138.096,361.814L138.084,361.544L138.073,361.275L138.062,361.005L138.052,360.735L138.043,360.464L138.035,360.194L138.028,359.923L138.021,359.652L138.016,359.381L138.011,359.11L138.007,358.838L138.004,358.566L138.002,358.295L138,358.022L138,357.75L138,189.25L138,188.978L138.002,188.705L138.004,188.434L138.007,188.162L138.011,187.89L138.016,187.619L138.021,187.348L138.028,187.077L138.035,186.806L138.043,186.536L138.052,186.265L138.062,185.995L138.073,185.725L138.084,185.456L138.096,185.186L138.11,184.917L138.124,184.648L138.139,184.38L138.154,184.111L138.171,183.843L138.189,183.575L138.207,183.307L138.226,183.039L138.246,182.772L138.267,182.505L138.288,182.238L138.311,181.971L138.334,181.705L138.358,181.438L138.383,181.172L138.409,180.907L138.435,180.641L138.463,180.376L138.491,180.111L138.52,179.846L138.55,179.581L138.581,179.317L138.612,179.053L138.644,178.789L138.677,178.526L138.711,178.263L138.746,178L138.782,177.737L138.818,177.474L138.855,177.212L138.893,176.95L138.932,176.688L138.971,176.427L139.012,176.166L139.053,175.905L139.095,175.644L139.138,175.383L139.181,175.123L139.226,174.863L139.271,174.604L139.317,174.344L139.364,174.085L139.411,173.827L139.46,173.568L139.509,173.31L139.559,173.052L139.609,172.794L139.661,172.537L139.713,172.28L139.766,172.023L139.82,171.766L139.874,171.51L139.93,171.254L139.986,170.998L140.043,170.743L140.101,170.488L140.159,170.233L140.218,169.978L140.278,169.724L140.339,169.47L140.401,169.217L140.463,168.963L140.526,168.71L140.59,168.457L140.654,168.205L140.72,167.953L140.786,167.701L140.853,167.45L140.92,167.198L140.989,166.947L141.058,166.697L141.128,166.447L141.198,166.197L141.27,165.947L141.342,165.698L141.415,165.449L141.488,165.2L141.563,164.951L141.638,164.703L141.714,164.456L141.79,164.208L141.868,163.961L141.946,163.714L142.025,163.468L142.104,163.222L142.184,162.976L142.265,162.731L142.347,162.485L142.43,162.241L142.513,161.996L142.597,161.752L142.682,161.508L142.767,161.265L142.853,161.022L142.94,160.779L143.027,160.537L143.116,160.295L143.205,160.053L143.294,159.811L143.385,159.57L143.476,159.33L143.568,159.089L143.661,158.849L143.754,158.61L143.848,158.37L143.942,158.132L144.038,157.893L144.134,157.655L144.231,157.417L144.328,157.179L144.427,156.942L144.526,156.706L144.625,156.469L144.725,156.233L144.827,155.998L144.928,155.762L145.031,155.527L145.134,155.293L145.238,155.059L145.342,154.825L145.447,154.591L145.553,154.358L145.66,154.126L145.767,153.893L145.875,153.662L145.983,153.43L146.093,153.199L146.203,152.968L146.313,152.738L146.425,152.508L146.537,152.278L146.649,152.049L146.763,151.82L146.877,151.592L146.991,151.364L147.107,151.136L147.223,150.909L147.339,150.682L147.457,150.455L147.575,150.229L147.693,150.004L147.813,149.779L147.933,149.554L148.053,149.329L148.175,149.105L148.297,148.882L148.419,148.658L148.543,148.436L148.667,148.213L148.791,147.991L148.916,147.77L149.042,147.549L149.169,147.328L149.296,147.108L149.424,146.888L149.552,146.668L149.682,146.449L149.811,146.23L149.942,146.012L150.073,145.794L150.204,145.577L150.337,145.36L150.47,145.144L150.603,144.928L150.737,144.712L150.872,144.497L151.008,144.282L151.144,144.068L151.281,143.854L151.418,143.64L151.556,143.427L151.695,143.215L151.834,143.003L151.974,142.791L152.114,142.58L152.255,142.369L152.397,142.159L152.539,141.949L152.682,141.739L152.826,141.53L152.97,141.322L153.114,141.114L153.26,140.906L153.406,140.699L153.552,140.492L153.7,140.286L153.847,140.08L153.996,139.875L154.145,139.67L154.294,139.466L154.444,139.262L154.595,139.058L154.747,138.855L154.899,138.653L155.051,138.451L155.204,138.249L155.358,138.048L155.512,137.847L155.667,137.647L155.823,137.448L155.979,137.248L156.136,137.05L156.293,136.851L156.451,136.654L156.609,136.456L156.768,136.26L156.928,136.063L157.088,135.867L157.249,135.672L157.41,135.477L157.572,135.283L157.734,135.089L157.897,134.896L158.061,134.703L158.225,134.511L158.39,134.319L158.555,134.127L158.721,133.936L158.887,133.746L159.054,133.556L159.222,133.367L159.39,133.178L159.559,132.99L159.728,132.802L159.898,132.615L160.068,132.428L160.239,132.241L160.41,132.056L160.582,131.87L160.755,131.686L160.928,131.501L161.101,131.318L161.275,131.135L161.45,130.952L161.625,130.77L161.801,130.588L161.977,130.407L162.154,130.226L162.332,130.046L162.509,129.867L162.688,129.688L162.867,129.509L163.046,129.332L163.226,129.154L163.407,128.977L163.588,128.801L163.77,128.625L163.952,128.45L164.135,128.275L164.318,128.101L164.501,127.928L164.686,127.755L164.87,127.582L165.056,127.41L165.241,127.239L165.428,127.068L165.615,126.898L165.802,126.728L165.99,126.559L166.178,126.39L166.367,126.222L166.556,126.054L166.746,125.887L166.936,125.721L167.127,125.555L167.319,125.39L167.511,125.225L167.703,125.061L167.896,124.897L168.089,124.734L168.283,124.572L168.477,124.41L168.672,124.249L168.867,124.088L169.063,123.928L169.26,123.768L169.456,123.609L169.654,123.451L169.851,123.293L170.05,123.136L170.248,122.979L170.448,122.823L170.647,122.667L170.847,122.512L171.048,122.358L171.249,122.204L171.451,122.051L171.653,121.899L171.855,121.747L172.058,121.595L172.262,121.444L172.466,121.294L172.67,121.145L172.875,120.996L173.08,120.847L173.286,120.7L173.492,120.552L173.699,120.406L173.906,120.26L174.114,120.114L174.322,119.97L174.53,119.826L174.739,119.682L174.949,119.539L175.159,119.397L175.369,119.255L175.58,119.114L175.791,118.974L176.003,118.834L176.215,118.695L176.427,118.556L176.64,118.418L176.854,118.281L177.068,118.144L177.282,118.008L177.497,117.872L177.712,117.737L177.928,117.603L178.144,117.47L178.36,117.337L178.577,117.204L178.794,117.073L179.012,116.942L179.23,116.811L179.449,116.682L179.668,116.552L179.888,116.424L180.108,116.296L180.328,116.169L180.549,116.042L180.77,115.916L180.991,115.791L181.213,115.667L181.436,115.543L181.658,115.419L181.882,115.297L182.105,115.175L182.329,115.053L182.554,114.933L182.779,114.813L183.004,114.693L183.229,114.575L183.455,114.457L183.682,114.339L183.909,114.223L184.136,114.107L184.364,113.991L184.592,113.877L184.82,113.763L185.049,113.649L185.278,113.537L185.508,113.425L185.738,113.313L185.968,113.203L186.199,113.093L186.43,112.983L186.662,112.875L186.893,112.767L187.126,112.66L187.358,112.553L187.591,112.447L187.825,112.342L188.059,112.238L188.293,112.134L188.527,112.031L188.762,111.928L188.998,111.827L189.233,111.725L189.469,111.625L189.706,111.526L189.942,111.427L190.179,111.328L190.417,111.231L190.655,111.134L190.893,111.038L191.132,110.942L191.37,110.848L191.61,110.754L191.849,110.661L192.089,110.568L192.33,110.476L192.57,110.385L192.811,110.294L193.053,110.205L193.295,110.116L193.537,110.027L193.779,109.94L194.022,109.853L194.265,109.767L194.508,109.682L194.752,109.597L194.996,109.513L195.241,109.43L195.485,109.347L195.731,109.265L195.976,109.184L196.222,109.104L196.468,109.025L196.714,108.946L196.961,108.868L197.208,108.79L197.456,108.714L197.703,108.638L197.951,108.563L198.2,108.488L198.449,108.415L198.698,108.342L198.947,108.27L199.197,108.198L199.447,108.128L199.697,108.058L199.947,107.989L200.198,107.92L200.45,107.853L200.701,107.786L200.953,107.72L201.205,107.654L201.457,107.59L201.71,107.526L201.963,107.463L202.217,107.401L202.47,107.339L202.724,107.278L202.978,107.218L203.233,107.159L203.488,107.101L203.743,107.043L203.998,106.986L204.254,106.93L204.51,106.874L204.766,106.82L205.023,106.766L205.28,106.713L205.537,106.661L205.794,106.609L206.052,106.559L206.31,106.509L206.568,106.46L206.827,106.411L207.085,106.364L207.344,106.317L207.604,106.271L207.863,106.226L208.123,106.181L208.383,106.138L208.644,106.095L208.905,106.053L209.166,106.012L209.427,105.971L209.688,105.932L209.95,105.893L210.212,105.855L210.474,105.818L210.737,105.782L211,105.746L211.263,105.711L211.526,105.677L211.789,105.644L212.053,105.612L212.317,105.581L212.581,105.55L212.846,105.52L213.111,105.491L213.376,105.463L213.641,105.435L213.907,105.409L214.172,105.383L214.438,105.358L214.705,105.334L214.971,105.311L215.238,105.288L215.505,105.267L215.772,105.246L216.039,105.226L216.307,105.207L216.575,105.189L216.843,105.171L217.111,105.154L217.38,105.139L217.648,105.124L217.917,105.11L218.186,105.096L218.456,105.084L218.725,105.073L218.995,105.062L219.265,105.052L219.536,105.043L219.806,105.035L220.077,105.028L220.348,105.021L220.619,105.016L220.89,105.011L221.162,105.007L221.434,105.004L221.705,105.002L221.978,105L222.25,105L390.75,105L391.022,105ZM222.263,120.921L222.028,120.922L221.806,120.923L221.585,120.924L221.364,120.927L221.143,120.93L220.922,120.934L220.701,120.938L220.481,120.944L220.26,120.95L220.04,120.956L219.821,120.964L219.601,120.972L219.381,120.98L219.162,120.99L218.943,121L218.724,121.011L218.506,121.022L218.287,121.034L218.069,121.047L217.851,121.06L217.633,121.075L217.416,121.089L217.198,121.105L216.981,121.121L216.764,121.138L216.548,121.156L216.331,121.174L216.115,121.193L215.899,121.212L215.683,121.232L215.467,121.253L215.252,121.275L215.037,121.297L214.821,121.32L214.607,121.344L214.392,121.368L214.178,121.393L213.964,121.418L213.75,121.444L213.536,121.471L213.322,121.499L213.109,121.527L212.896,121.556L212.683,121.585L212.471,121.615L212.258,121.646L212.046,121.678L211.834,121.71L211.623,121.742L211.411,121.776L211.2,121.81L210.989,121.844L210.778,121.88L210.568,121.916L210.357,121.952L210.147,121.99L209.937,122.027L209.728,122.066L209.518,122.105L209.309,122.145L209.1,122.185L208.891,122.226L208.683,122.268L208.475,122.31L208.267,122.353L208.059,122.397L207.852,122.441L207.644,122.486L207.437,122.531L207.23,122.577L207.024,122.624L206.818,122.671L206.611,122.719L206.406,122.768L206.2,122.817L205.995,122.867L205.79,122.917L205.585,122.969L205.38,123.02L205.176,123.072L204.972,123.125L204.768,123.179L204.564,123.233L204.361,123.288L204.158,123.343L203.955,123.399L203.752,123.456L203.55,123.513L203.348,123.571L203.146,123.629L202.945,123.688L202.743,123.748L202.542,123.808L202.341,123.869L202.141,123.93L201.941,123.992L201.741,124.055L201.541,124.118L201.341,124.182L201.142,124.246L200.943,124.311L200.745,124.377L200.546,124.443L200.348,124.51L200.15,124.577L199.952,124.645L199.755,124.713L199.558,124.783L199.361,124.852L199.165,124.923L198.969,124.993L198.773,125.065L198.577,125.137L198.381,125.21L198.186,125.283L197.991,125.357L197.797,125.431L197.603,125.506L197.409,125.582L197.215,125.658L197.021,125.734L196.828,125.812L196.635,125.889L196.443,125.968L196.25,126.047L196.058,126.126L195.867,126.206L195.675,126.287L195.484,126.368L195.293,126.45L195.103,126.533L194.912,126.616L194.722,126.699L194.533,126.783L194.343,126.868L194.154,126.953L193.965,127.039L193.777,127.125L193.589,127.212L193.401,127.299L193.213,127.387L193.026,127.476L192.839,127.565L192.652,127.655L192.466,127.745L192.28,127.836L192.094,127.927L191.909,128.019L191.724,128.111L191.539,128.204L191.354,128.298L191.17,128.392L190.986,128.486L190.803,128.581L190.62,128.677L190.437,128.773L190.254,128.87L190.072,128.967L189.89,129.065L189.708,129.163L189.527,129.262L189.346,129.362L189.165,129.462L188.985,129.562L188.805,129.663L188.626,129.765L188.446,129.867L188.267,129.969L188.089,130.073L187.91,130.176L187.732,130.28L187.555,130.385L187.377,130.49L187.2,130.596L187.024,130.702L186.847,130.809L186.671,130.917L186.496,131.024L186.32,131.133L186.146,131.242L185.971,131.351L185.797,131.461L185.623,131.571L185.449,131.682L185.276,131.794L185.103,131.906L184.931,132.018L184.759,132.131L184.587,132.245L184.415,132.359L184.244,132.473L184.074,132.588L183.903,132.704L183.733,132.82L183.564,132.936L183.395,133.053L183.226,133.171L183.057,133.289L182.889,133.407L182.721,133.526L182.554,133.645L182.387,133.765L182.22,133.886L182.054,134.007L181.888,134.128L181.722,134.25L181.557,134.373L181.392,134.496L181.228,134.619L181.064,134.743L180.9,134.867L180.737,134.992L180.574,135.117L180.411,135.243L180.249,135.369L180.087,135.496L179.926,135.623L179.765,135.751L179.604,135.879L179.444,136.008L179.284,136.137L179.125,136.267L178.966,136.397L178.807,136.527L178.649,136.658L178.491,136.79L178.334,136.922L178.177,137.054L178.02,137.187L177.864,137.32L177.708,137.454L177.552,137.589L177.397,137.723L177.243,137.858L177.089,137.994L176.935,138.13L176.781,138.267L176.628,138.404L176.476,138.541L176.324,138.679L176.172,138.817L176.02,138.956L175.87,139.095L175.719,139.235L175.569,139.375L175.419,139.516L175.27,139.657L175.121,139.798L174.973,139.94L174.825,140.083L174.677,140.225L174.53,140.369L174.384,140.512L174.237,140.656L174.091,140.801L173.946,140.946L173.801,141.091L173.656,141.237L173.512,141.384L173.369,141.53L173.225,141.677L173.083,141.825L172.94,141.973L172.798,142.121L172.657,142.27L172.516,142.419L172.375,142.569L172.235,142.719L172.095,142.87L171.956,143.02L171.817,143.172L171.679,143.324L171.541,143.476L171.404,143.628L171.267,143.781L171.13,143.935L170.994,144.089L170.858,144.243L170.723,144.397L170.589,144.552L170.454,144.708L170.32,144.864L170.187,145.02L170.054,145.177L169.922,145.334L169.79,145.491L169.658,145.649L169.527,145.807L169.397,145.966L169.267,146.125L169.137,146.284L169.008,146.444L168.879,146.604L168.751,146.765L168.623,146.926L168.496,147.087L168.369,147.249L168.243,147.411L168.117,147.574L167.992,147.737L167.867,147.9L167.743,148.064L167.619,148.228L167.496,148.392L167.373,148.557L167.25,148.722L167.128,148.888L167.007,149.054L166.886,149.22L166.765,149.387L166.645,149.554L166.526,149.721L166.407,149.889L166.289,150.057L166.171,150.226L166.053,150.395L165.936,150.564L165.82,150.733L165.704,150.903L165.588,151.074L165.473,151.244L165.359,151.415L165.245,151.587L165.131,151.759L165.018,151.931L164.906,152.103L164.794,152.276L164.682,152.449L164.571,152.623L164.461,152.797L164.351,152.971L164.242,153.146L164.133,153.32L164.024,153.496L163.917,153.671L163.809,153.847L163.702,154.024L163.596,154.2L163.49,154.377L163.385,154.555L163.28,154.732L163.176,154.91L163.073,155.089L162.969,155.267L162.867,155.446L162.765,155.626L162.663,155.805L162.562,155.985L162.462,156.165L162.362,156.346L162.262,156.527L162.163,156.708L162.065,156.89L161.967,157.072L161.87,157.254L161.773,157.437L161.677,157.62L161.581,157.803L161.486,157.986L161.392,158.17L161.298,158.354L161.204,158.539L161.111,158.724L161.019,158.909L160.927,159.094L160.836,159.28L160.745,159.466L160.655,159.652L160.565,159.839L160.476,160.026L160.387,160.213L160.299,160.401L160.212,160.589L160.125,160.777L160.039,160.965L159.953,161.154L159.868,161.343L159.783,161.533L159.699,161.722L159.616,161.912L159.533,162.103L159.45,162.293L159.368,162.484L159.287,162.675L159.206,162.867L159.126,163.058L159.047,163.25L158.968,163.443L158.889,163.635L158.812,163.828L158.734,164.021L158.658,164.215L158.582,164.409L158.506,164.603L158.431,164.797L158.357,164.991L158.283,165.186L158.21,165.381L158.137,165.577L158.065,165.773L157.993,165.969L157.923,166.165L157.852,166.361L157.783,166.558L157.713,166.755L157.645,166.952L157.577,167.15L157.51,167.348L157.443,167.546L157.377,167.745L157.311,167.943L157.246,168.142L157.182,168.341L157.118,168.541L157.055,168.741L156.992,168.941L156.93,169.141L156.869,169.341L156.808,169.542L156.748,169.743L156.688,169.945L156.629,170.146L156.571,170.348L156.513,170.55L156.456,170.752L156.399,170.955L156.343,171.158L156.288,171.361L156.233,171.564L156.179,171.768L156.125,171.972L156.072,172.176L156.02,172.38L155.969,172.585L155.917,172.79L155.867,172.995L155.817,173.2L155.768,173.406L155.719,173.611L155.671,173.818L155.624,174.024L155.577,174.23L155.531,174.437L155.486,174.644L155.441,174.852L155.397,175.059L155.353,175.267L155.31,175.475L155.268,175.683L155.226,175.891L155.185,176.1L155.145,176.309L155.105,176.518L155.066,176.728L155.027,176.937L154.99,177.147L154.952,177.357L154.916,177.568L154.88,177.778L154.844,177.989L154.81,178.2L154.776,178.411L154.742,178.623L154.71,178.834L154.678,179.046L154.646,179.258L154.615,179.471L154.585,179.683L154.556,179.896L154.527,180.109L154.499,180.322L154.471,180.536L154.444,180.75L154.418,180.964L154.393,181.178L154.368,181.392L154.344,181.607L154.32,181.821L154.297,182.037L154.275,182.252L154.253,182.467L154.232,182.683L154.212,182.899L154.193,183.115L154.174,183.331L154.156,183.548L154.138,183.764L154.121,183.981L154.105,184.198L154.089,184.416L154.075,184.633L154.06,184.851L154.047,185.069L154.034,185.287L154.022,185.506L154.011,185.724L154,185.943L153.99,186.162L153.98,186.381L153.972,186.601L153.964,186.821L153.956,187.04L153.95,187.26L153.944,187.481L153.938,187.701L153.934,187.922L153.93,188.143L153.927,188.364L153.924,188.585L153.923,188.806L153.922,189.028L153.921,189.263L153.921,357.737L153.922,357.972L153.923,358.194L153.924,358.415L153.927,358.636L153.93,358.857L153.934,359.078L153.938,359.299L153.944,359.519L153.95,359.74L153.956,359.96L153.964,360.179L153.972,360.399L153.98,360.619L153.99,360.838L154,361.057L154.011,361.276L154.022,361.494L154.034,361.713L154.047,361.931L154.06,362.149L154.075,362.367L154.089,362.584L154.105,362.802L154.121,363.019L154.138,363.236L154.156,363.452L154.174,363.669L154.193,363.885L154.212,364.101L154.232,364.317L154.253,364.533L154.275,364.748L154.297,364.964L154.32,365.179L154.344,365.393L154.368,365.608L154.393,365.822L154.418,366.036L154.444,366.25L154.471,366.464L154.499,366.677L154.527,366.891L154.556,367.104L154.585,367.317L154.615,367.529L154.646,367.742L154.678,367.954L154.71,368.166L154.742,368.377L154.776,368.589L154.81,368.8L154.844,369.011L154.88,369.222L154.916,369.432L154.952,369.643L154.99,369.853L155.027,370.063L155.066,370.272L155.105,370.482L155.145,370.691L155.185,370.9L155.226,371.108L155.268,371.317L155.31,371.525L155.353,371.733L155.397,371.941L155.441,372.148L155.486,372.356L155.531,372.563L155.577,372.77L155.624,372.976L155.671,373.182L155.719,373.389L155.768,373.594L155.817,373.8L155.867,374.005L155.917,374.21L155.969,374.415L156.02,374.62L156.072,374.824L156.125,375.028L156.179,375.232L156.233,375.436L156.288,375.639L156.343,375.842L156.399,376.045L156.456,376.248L156.513,376.45L156.571,376.652L156.629,376.854L156.688,377.055L156.748,377.257L156.808,377.458L156.869,377.659L156.93,377.859L156.992,378.059L157.055,378.259L157.118,378.459L157.182,378.659L157.246,378.858L157.311,379.057L157.377,379.255L157.443,379.454L157.51,379.652L157.577,379.85L157.645,380.048L157.713,380.245L157.783,380.442L157.852,380.639L157.923,380.835L157.993,381.031L158.065,381.227L158.137,381.423L158.21,381.619L158.283,381.814L158.357,382.009L158.431,382.203L158.506,382.397L158.582,382.591L158.658,382.785L158.734,382.979L158.812,383.172L158.889,383.365L158.968,383.557L159.047,383.75L159.126,383.942L159.206,384.133L159.287,384.325L159.368,384.516L159.45,384.707L159.533,384.897L159.616,385.088L159.699,385.278L159.783,385.467L159.868,385.657L159.953,385.846L160.039,386.035L160.125,386.223L160.212,386.411L160.299,386.599L160.387,386.787L160.476,386.974L160.565,387.161L160.655,387.347L160.745,387.534L160.836,387.72L160.927,387.906L161.019,388.091L161.111,388.276L161.204,388.461L161.297,388.645L161.392,388.83L161.486,389.014L161.581,389.197L161.677,389.38L161.773,389.563L161.87,389.746L161.967,389.928L162.065,390.11L162.163,390.292L162.262,390.473L162.362,390.654L162.462,390.835L162.562,391.015L162.663,391.195L162.765,391.375L162.867,391.554L162.969,391.733L163.073,391.912L163.176,392.09L163.28,392.268L163.385,392.445L163.49,392.623L163.596,392.8L163.702,392.976L163.809,393.152L163.917,393.329L164.024,393.504L164.133,393.679L164.242,393.855L164.351,394.029L164.461,394.203L164.571,394.377L164.682,394.551L164.794,394.724L164.906,394.897L165.018,395.069L165.131,395.241L165.245,395.413L165.359,395.585L165.473,395.755L165.588,395.926L165.704,396.097L165.82,396.267L165.936,396.436L166.053,396.606L166.171,396.774L166.288,396.943L166.407,397.111L166.526,397.279L166.645,397.446L166.765,397.613L166.886,397.78L167.007,397.947L167.128,398.112L167.25,398.278L167.373,398.443L167.496,398.608L167.619,398.773L167.743,398.936L167.867,399.1L167.992,399.263L168.117,399.426L168.243,399.589L168.369,399.751L168.496,399.913L168.623,400.074L168.751,400.235L168.88,400.396L169.008,400.556L169.137,400.716L169.267,400.875L169.397,401.034L169.527,401.193L169.659,401.351L169.79,401.509L169.922,401.666L170.054,401.823L170.187,401.98L170.321,402.136L170.454,402.292L170.589,402.448L170.723,402.602L170.858,402.757L170.994,402.912L171.13,403.065L171.267,403.219L171.404,403.372L171.541,403.524L171.679,403.676L171.817,403.828L171.956,403.98L172.096,404.131L172.235,404.281L172.375,404.431L172.516,404.581L172.657,404.73L172.798,404.879L172.94,405.027L173.083,405.175L173.226,405.323L173.369,405.47L173.512,405.616L173.656,405.763L173.801,405.908L173.946,406.054L174.092,406.199L174.237,406.343L174.383,406.487L174.53,406.631L174.677,406.775L174.825,406.917L174.973,407.06L175.121,407.202L175.27,407.343L175.419,407.484L175.569,407.625L175.719,407.765L175.869,407.904L176.02,408.044L176.172,408.183L176.324,408.321L176.475,408.459L176.628,408.596L176.781,408.733L176.935,408.87L177.089,409.006L177.243,409.141L177.397,409.277L177.553,409.412L177.708,409.546L177.864,409.68L178.02,409.813L178.176,409.945L178.334,410.078L178.491,410.21L178.649,410.342L178.807,410.473L178.966,410.603L179.125,410.733L179.284,410.863L179.444,410.992L179.604,411.121L179.765,411.249L179.926,411.376L180.087,411.504L180.249,411.631L180.411,411.757L180.574,411.883L180.737,412.008L180.9,412.133L181.064,412.257L181.228,412.381L181.392,412.504L181.557,412.627L181.722,412.75L181.888,412.872L182.054,412.993L182.22,413.114L182.386,413.234L182.553,413.354L182.721,413.474L182.889,413.593L183.057,413.711L183.225,413.829L183.394,413.947L183.564,414.064L183.734,414.181L183.903,414.296L184.074,414.412L184.245,414.527L184.416,414.642L184.587,414.755L184.759,414.869L184.931,414.982L185.103,415.094L185.276,415.206L185.449,415.318L185.623,415.429L185.797,415.539L185.971,415.649L186.146,415.758L186.32,415.867L186.496,415.976L186.672,416.084L186.848,416.191L187.023,416.297L187.2,416.404L187.377,416.51L187.555,416.615L187.732,416.72L187.91,416.824L188.088,416.927L188.267,417.031L188.446,417.133L188.626,417.235L188.805,417.337L188.985,417.438L189.165,417.538L189.346,417.638L189.527,417.738L189.708,417.837L189.89,417.935L190.072,418.033L190.254,418.13L190.437,418.227L190.62,418.323L190.803,418.419L190.986,418.514L191.17,418.608L191.354,418.702L191.539,418.796L191.724,418.889L191.909,418.981L192.094,419.073L192.28,419.164L192.466,419.255L192.652,419.345L192.839,419.435L193.026,419.524L193.213,419.613L193.401,419.701L193.589,419.788L193.777,419.875L193.965,419.961L194.154,420.047L194.344,420.132L194.533,420.217L194.722,420.301L194.912,420.384L195.103,420.467L195.293,420.55L195.484,420.632L195.675,420.713L195.866,420.793L196.058,420.874L196.251,420.953L196.443,421.032L196.635,421.111L196.828,421.188L197.021,421.266L197.215,421.342L197.409,421.419L197.603,421.494L197.797,421.569L197.991,421.643L198.187,421.717L198.381,421.79L198.577,421.863L198.773,421.935L198.968,422.006L199.165,422.077L199.362,422.148L199.558,422.217L199.755,422.287L199.952,422.355L200.15,422.423L200.348,422.49L200.546,422.557L200.745,422.623L200.943,422.689L201.142,422.754L201.341,422.818L201.541,422.882L201.741,422.945L201.941,423.008L202.141,423.07L202.342,423.131L202.542,423.192L202.743,423.252L202.945,423.312L203.146,423.371L203.348,423.429L203.55,423.487L203.752,423.544L203.955,423.601L204.158,423.657L204.361,423.712L204.565,423.767L204.768,423.821L204.972,423.875L205.175,423.927L205.38,423.98L205.585,424.032L205.79,424.083L205.994,424.133L206.2,424.183L206.406,424.232L206.611,424.281L206.818,424.329L207.024,424.376L207.231,424.423L207.437,424.469L207.644,424.514L207.851,424.559L208.059,424.603L208.267,424.647L208.474,424.69L208.683,424.732L208.891,424.774L209.1,424.815L209.309,424.855L209.519,424.895L209.728,424.934L209.937,424.973L210.147,425.01L210.357,425.048L210.568,425.084L210.778,425.12L210.989,425.155L211.2,425.19L211.411,425.224L211.623,425.258L211.835,425.29L212.046,425.322L212.258,425.354L212.471,425.385L212.683,425.415L212.896,425.444L213.109,425.473L213.322,425.501L213.536,425.529L213.75,425.556L213.964,425.582L214.177,425.607L214.392,425.632L214.607,425.656L214.821,425.68L215.037,425.703L215.252,425.725L215.467,425.747L215.683,425.768L215.899,425.788L216.115,425.807L216.331,425.826L216.548,425.844L216.764,425.862L216.981,425.879L217.198,425.895L217.416,425.911L217.633,425.925L217.851,425.94L218.069,425.953L218.288,425.966L218.506,425.978L218.725,425.99L218.943,426L219.162,426.01L219.381,426.02L219.601,426.028L219.821,426.036L220.04,426.044L220.26,426.05L220.481,426.056L220.701,426.062L220.922,426.066L221.143,426.07L221.364,426.073L221.585,426.076L221.807,426.077L222.028,426.078L222.262,426.079L390.738,426.079L390.972,426.078L391.193,426.077L391.415,426.076L391.636,426.073L391.857,426.07L392.078,426.066L392.299,426.062L392.519,426.056L392.74,426.05L392.96,426.044L393.179,426.036L393.399,426.028L393.619,426.02L393.838,426.01L394.057,426L394.275,425.99L394.494,425.978L394.712,425.966L394.931,425.953L395.149,425.94L395.367,425.925L395.584,425.911L395.802,425.895L396.019,425.879L396.236,425.862L396.452,425.844L396.669,425.826L396.885,425.807L397.101,425.788L397.317,425.768L397.533,425.747L397.748,425.725L397.963,425.703L398.179,425.68L398.393,425.656L398.608,425.632L398.823,425.607L399.037,425.582L399.25,425.556L399.464,425.529L399.678,425.501L399.891,425.473L400.104,425.444L400.316,425.415L400.529,425.385L400.742,425.354L400.954,425.322L401.165,425.29L401.377,425.258L401.589,425.224L401.8,425.19L402.011,425.155L402.222,425.12L402.432,425.084L402.643,425.048L402.853,425.01L403.063,424.973L403.272,424.934L403.481,424.895L403.691,424.855L403.9,424.815L404.109,424.774L404.317,424.732L404.526,424.69L404.733,424.647L404.941,424.603L405.149,424.559L405.356,424.514L405.563,424.469L405.769,424.423L405.976,424.376L406.182,424.329L406.389,424.281L406.594,424.232L406.8,424.183L407.006,424.133L407.21,424.083L407.415,424.032L407.62,423.98L407.825,423.927L408.028,423.875L408.232,423.821L408.436,423.767L408.639,423.712L408.842,423.657L409.045,423.601L409.248,423.544L409.45,423.487L409.652,423.429L409.854,423.371L410.055,423.312L410.257,423.252L410.458,423.192L410.659,423.131L410.859,423.07L411.059,423.008L411.259,422.945L411.459,422.882L411.659,422.818L411.858,422.754L412.057,422.689L412.255,422.623L412.454,422.557L412.652,422.49L412.85,422.423L413.048,422.355L413.245,422.287L413.442,422.218L413.638,422.148L413.835,422.077L414.032,422.006L414.227,421.935L414.423,421.863L414.619,421.79L414.813,421.717L415.009,421.643L415.203,421.569L415.397,421.494L415.591,421.419L415.785,421.342L415.979,421.266L416.172,421.189L416.365,421.111L416.557,421.032L416.749,420.953L416.942,420.874L417.134,420.793L417.325,420.713L417.516,420.632L417.707,420.55L417.898,420.467L418.088,420.384L418.278,420.301L418.467,420.217L418.656,420.132L418.846,420.047L419.035,419.961L419.223,419.875L419.411,419.788L419.599,419.701L419.787,419.612L419.974,419.524L420.161,419.435L420.347,419.345L420.534,419.255L420.72,419.164L420.906,419.073L421.091,418.981L421.276,418.889L421.461,418.796L421.645,418.703L421.83,418.608L422.014,418.514L422.197,418.419L422.38,418.323L422.563,418.227L422.746,418.13L422.928,418.033L423.11,417.935L423.292,417.837L423.473,417.738L423.654,417.638L423.835,417.538L424.015,417.438L424.195,417.337L424.375,417.235L424.554,417.133L424.733,417.031L424.912,416.927L425.09,416.824L425.268,416.72L425.445,416.615L425.623,416.51L425.8,416.404L425.977,416.297L426.152,416.191L426.329,416.084L426.504,415.976L426.68,415.867L426.855,415.758L427.029,415.649L427.203,415.539L427.377,415.429L427.551,415.318L427.724,415.206L427.897,415.094L428.069,414.982L428.241,414.869L428.413,414.755L428.584,414.642L428.755,414.527L428.926,414.412L429.097,414.296L429.266,414.181L429.436,414.064L429.606,413.947L429.775,413.829L429.943,413.711L430.111,413.593L430.279,413.474L430.446,413.354L430.614,413.234L430.78,413.114L430.947,412.993L431.112,412.872L431.277,412.75L431.443,412.627L431.608,412.504L431.772,412.381L431.937,412.257L432.1,412.133L432.263,412.008L432.426,411.883L432.589,411.757L432.751,411.631L432.912,411.504L433.074,411.376L433.235,411.249L433.396,411.12L433.556,410.992L433.715,410.863L433.875,410.733L434.034,410.603L434.193,410.472L434.351,410.341L434.509,410.21L434.666,410.078L434.823,409.946L434.98,409.813L435.136,409.679L435.292,409.546L435.447,409.412L435.603,409.277L435.757,409.142L435.911,409.006L436.065,408.87L436.219,408.733L436.372,408.596L436.524,408.459L436.676,408.321L436.828,408.183L436.98,408.043L437.131,407.904L437.281,407.765L437.431,407.625L437.581,407.484L437.73,407.343L437.878,407.202L438.027,407.06L438.175,406.917L438.323,406.774L438.47,406.631L438.617,406.487L438.763,406.343L438.908,406.199L439.054,406.054L439.199,405.908L439.343,405.763L439.487,405.617L439.631,405.47L439.774,405.323L439.917,405.175L440.06,405.027L440.202,404.878L440.343,404.73L440.484,404.581L440.625,404.431L440.765,404.281L440.904,404.131L441.043,403.98L441.183,403.828L441.321,403.676L441.459,403.524L441.596,403.372L441.733,403.219L441.87,403.065L442.006,402.911L442.142,402.757L442.277,402.603L442.412,402.447L442.546,402.292L442.679,402.136L442.813,401.98L442.946,401.823L443.078,401.666L443.21,401.509L443.341,401.351L443.472,401.193L443.603,401.034L443.733,400.875L443.863,400.715L443.992,400.556L444.12,400.396L444.249,400.235L444.376,400.074L444.504,399.912L444.631,399.751L444.757,399.589L444.883,399.426L445.008,399.263L445.133,399.1L445.257,398.937L445.381,398.772L445.504,398.608L445.627,398.443L445.75,398.277L445.872,398.112L445.993,397.947L446.114,397.78L446.234,397.614L446.354,397.446L446.474,397.279L446.593,397.111L446.711,396.943L446.829,396.775L446.947,396.606L447.064,396.436L447.181,396.266L447.296,396.097L447.412,395.926L447.527,395.755L447.642,395.584L447.755,395.413L447.869,395.241L447.982,395.069L448.094,394.897L448.206,394.724L448.318,394.551L448.429,394.377L448.539,394.203L448.649,394.029L448.758,393.855L448.867,393.68L448.976,393.504L449.084,393.329L449.191,393.152L449.297,392.977L449.404,392.8L449.51,392.623L449.615,392.445L449.72,392.268L449.824,392.09L449.927,391.912L450.031,391.733L450.133,391.554L450.235,391.375L450.337,391.195L450.438,391.015L450.538,390.835L450.638,390.654L450.738,390.473L450.837,390.292L450.935,390.11L451.033,389.928L451.13,389.746L451.227,389.563L451.323,389.38L451.419,389.197L451.514,389.014L451.608,388.83L451.703,388.645L451.796,388.461L451.889,388.276L451.981,388.091L452.073,387.906L452.164,387.72L452.255,387.534L452.345,387.347L452.435,387.161L452.524,386.974L452.612,386.787L452.701,386.599L452.788,386.411L452.875,386.223L452.961,386.035L453.047,385.846L453.132,385.656L453.217,385.467L453.301,385.278L453.384,385.088L453.467,384.898L453.55,384.707L453.632,384.516L453.713,384.325L453.793,384.134L453.874,383.942L453.953,383.749L454.032,383.557L454.111,383.365L454.189,383.172L454.266,382.979L454.342,382.785L454.419,382.591L454.494,382.397L454.569,382.203L454.643,382.009L454.717,381.813L454.79,381.619L454.863,381.423L454.935,381.227L455.006,381.032L455.077,380.835L455.148,380.638L455.218,380.442L455.287,380.245L455.355,380.048L455.423,379.85L455.49,379.652L455.557,379.454L455.623,379.255L455.689,379.057L455.754,378.858L455.818,378.659L455.882,378.459L455.945,378.259L456.008,378.059L456.07,377.859L456.131,377.659L456.192,377.458L456.252,377.257L456.312,377.055L456.371,376.854L456.429,376.652L456.487,376.45L456.544,376.248L456.601,376.045L456.657,375.842L456.712,375.639L456.767,375.436L456.821,375.232L456.875,375.028L456.927,374.825L456.98,374.62L457.032,374.415L457.083,374.21L457.133,374.006L457.183,373.8L457.232,373.594L457.281,373.389L457.329,373.182L457.376,372.976L457.423,372.769L457.469,372.563L457.514,372.356L457.559,372.149L457.603,371.941L457.647,371.733L457.69,371.526L457.732,371.317L457.774,371.109L457.815,370.9L457.855,370.691L457.895,370.481L457.934,370.272L457.973,370.063L458.01,369.853L458.048,369.643L458.084,369.432L458.12,369.222L458.155,369.011L458.19,368.8L458.224,368.589L458.258,368.377L458.29,368.165L458.322,367.954L458.354,367.742L458.385,367.529L458.415,367.316L458.444,367.104L458.473,366.891L458.501,366.678L458.529,366.464L458.556,366.25L458.582,366.037L458.607,365.823L458.632,365.608L458.656,365.393L458.68,365.179L458.703,364.963L458.725,364.748L458.747,364.533L458.768,364.317L458.788,364.101L458.807,363.885L458.826,363.669L458.844,363.452L458.862,363.236L458.879,363.019L458.895,362.802L458.911,362.584L458.925,362.367L458.94,362.149L458.953,361.931L458.966,361.712L458.978,361.494L458.99,361.275L459,361.057L459.01,360.838L459.02,360.619L459.028,360.399L459.036,360.179L459.044,359.96L459.05,359.74L459.056,359.519L459.062,359.299L459.066,359.078L459.07,358.857L459.073,358.636L459.076,358.415L459.077,358.193L459.078,357.972L459.079,357.738L459.079,189.262L459.078,189.028L459.077,188.807L459.076,188.585L459.073,188.364L459.07,188.143L459.066,187.922L459.062,187.701L459.056,187.481L459.05,187.26L459.044,187.04L459.036,186.821L459.028,186.601L459.02,186.381L459.01,186.162L459,185.943L458.99,185.725L458.978,185.506L458.966,185.288L458.953,185.069L458.94,184.851L458.925,184.633L458.911,184.416L458.895,184.198L458.879,183.981L458.862,183.764L458.844,183.548L458.826,183.331L458.807,183.115L458.788,182.899L458.768,182.683L458.747,182.467L458.725,182.252L458.703,182.037L458.68,181.821L458.656,181.607L458.632,181.392L458.607,181.177L458.582,180.964L458.556,180.75L458.529,180.536L458.501,180.322L458.473,180.109L458.444,179.896L458.415,179.683L458.385,179.471L458.354,179.258L458.322,179.046L458.29,178.835L458.258,178.623L458.224,178.411L458.19,178.2L458.155,177.989L458.12,177.778L458.084,177.568L458.048,177.357L458.01,177.147L457.973,176.937L457.934,176.728L457.895,176.519L457.855,176.309L457.815,176.1L457.774,175.891L457.732,175.683L457.69,175.474L457.647,175.267L457.603,175.059L457.559,174.851L457.514,174.644L457.469,174.437L457.423,174.231L457.376,174.024L457.329,173.818L457.281,173.611L457.232,173.406L457.183,173.2L457.133,172.994L457.083,172.79L457.032,172.585L456.98,172.38L456.927,172.175L456.875,171.972L456.821,171.768L456.767,171.565L456.712,171.361L456.657,171.158L456.601,170.955L456.544,170.752L456.487,170.55L456.429,170.348L456.371,170.146L456.312,169.945L456.252,169.743L456.192,169.542L456.131,169.342L456.07,169.141L456.008,168.941L455.945,168.741L455.882,168.541L455.818,168.341L455.754,168.142L455.689,167.943L455.623,167.745L455.557,167.546L455.49,167.348L455.423,167.15L455.355,166.952L455.287,166.755L455.217,166.558L455.148,166.362L455.077,166.165L455.006,165.968L454.935,165.773L454.863,165.577L454.79,165.381L454.717,165.187L454.643,164.991L454.569,164.797L454.494,164.603L454.419,164.409L454.342,164.215L454.266,164.021L454.188,163.828L454.111,163.635L454.032,163.443L453.953,163.251L453.874,163.058L453.793,162.866L453.713,162.675L453.632,162.484L453.55,162.293L453.467,162.103L453.384,161.912L453.301,161.722L453.217,161.533L453.132,161.344L453.047,161.154L452.961,160.965L452.875,160.777L452.788,160.589L452.701,160.401L452.613,160.213L452.524,160.026L452.435,159.839L452.345,159.652L452.255,159.466L452.164,159.28L452.073,159.094L451.981,158.909L451.889,158.724L451.796,158.539L451.702,158.354L451.608,158.17L451.514,157.986L451.419,157.803L451.323,157.62L451.227,157.437L451.13,157.254L451.033,157.072L450.935,156.89L450.837,156.708L450.738,156.527L450.638,156.346L450.538,156.165L450.438,155.985L450.337,155.805L450.235,155.626L450.133,155.446L450.031,155.267L449.927,155.088L449.824,154.91L449.72,154.732L449.615,154.555L449.51,154.377L449.404,154.2L449.297,154.023L449.191,153.848L449.084,153.672L448.976,153.496L448.867,153.32L448.758,153.146L448.649,152.971L448.539,152.797L448.429,152.623L448.318,152.449L448.206,152.276L448.094,152.103L447.982,151.931L447.869,151.759L447.755,151.587L447.642,151.416L447.527,151.245L447.412,151.074L447.296,150.903L447.181,150.734L447.064,150.564L446.947,150.394L446.829,150.225L446.711,150.057L446.593,149.889L446.474,149.721L446.354,149.553L446.234,149.386L446.114,149.22L445.993,149.054L445.872,148.888L445.75,148.722L445.627,148.557L445.504,148.392L445.381,148.228L445.257,148.064L445.133,147.9L445.008,147.737L444.883,147.574L444.757,147.411L444.631,147.249L444.504,147.087L444.376,146.926L444.249,146.765L444.121,146.604L443.992,146.444L443.863,146.284L443.733,146.125L443.603,145.966L443.473,145.807L443.342,145.649L443.21,145.491L443.078,145.334L442.945,145.176L442.813,145.02L442.68,144.864L442.546,144.708L442.412,144.553L442.277,144.397L442.141,144.243L442.006,144.089L441.87,143.935L441.733,143.781L441.596,143.628L441.459,143.475L441.321,143.324L441.183,143.172L441.044,143.02L440.904,142.869L440.765,142.719L440.625,142.569L440.484,142.419L440.343,142.27L440.202,142.121L440.06,141.973L439.917,141.825L439.775,141.677L439.631,141.53L439.487,141.383L439.343,141.237L439.199,141.092L439.054,140.946L438.908,140.801L438.763,140.656L438.616,140.512L438.47,140.369L438.323,140.226L438.175,140.083L438.027,139.94L437.879,139.798L437.73,139.657L437.581,139.516L437.431,139.375L437.281,139.235L437.131,139.096L436.98,138.956L436.828,138.817L436.676,138.679L436.524,138.541L436.372,138.404L436.219,138.267L436.065,138.13L435.912,137.994L435.757,137.858L435.602,137.723L435.448,137.589L435.292,137.454L435.136,137.321L434.98,137.187L434.823,137.054L434.666,136.922L434.509,136.79L434.351,136.659L434.193,136.527L434.034,136.397L433.875,136.267L433.716,136.137L433.556,136.008L433.396,135.88L433.235,135.751L433.074,135.623L432.913,135.496L432.751,135.369L432.589,135.243L432.426,135.117L432.263,134.992L432.1,134.867L431.936,134.743L431.773,134.619L431.608,134.496L431.443,134.373L431.278,134.25L431.112,134.128L430.947,134.007L430.78,133.886L430.613,133.765L430.446,133.645L430.279,133.526L430.111,133.407L429.943,133.288L429.774,133.171L429.606,133.053L429.436,132.936L429.267,132.82L429.097,132.704L428.926,132.588L428.755,132.473L428.585,132.359L428.413,132.245L428.241,132.131L428.069,132.018L427.897,131.906L427.724,131.794L427.551,131.682L427.377,131.571L427.203,131.461L427.029,131.351L426.855,131.242L426.679,131.133L426.504,131.024L426.329,130.917L426.152,130.809L425.976,130.702L425.8,130.596L425.623,130.49L425.445,130.385L425.268,130.28L425.09,130.176L424.912,130.073L424.733,129.969L424.554,129.867L424.375,129.765L424.195,129.663L424.015,129.562L423.835,129.462L423.654,129.362L423.473,129.262L423.292,129.163L423.11,129.065L422.928,128.967L422.746,128.87L422.563,128.773L422.38,128.677L422.197,128.581L422.014,128.486L421.83,128.392L421.645,128.297L421.461,128.204L421.276,128.111L421.091,128.019L420.906,127.927L420.72,127.836L420.534,127.745L420.347,127.655L420.161,127.565L419.974,127.476L419.787,127.387L419.599,127.299L419.411,127.212L419.223,127.125L419.035,127.039L418.846,126.953L418.657,126.868L418.467,126.783L418.278,126.699L418.088,126.616L417.897,126.533L417.707,126.45L417.516,126.368L417.325,126.287L417.133,126.206L416.942,126.126L416.75,126.047L416.557,125.968L416.365,125.889L416.172,125.812L415.979,125.734L415.785,125.658L415.591,125.582L415.397,125.506L415.203,125.431L415.009,125.357L414.814,125.283L414.619,125.21L414.423,125.137L414.227,125.065L414.031,124.993L413.835,124.923L413.639,124.852L413.442,124.783L413.245,124.713L413.048,124.645L412.85,124.577L412.652,124.51L412.454,124.443L412.255,124.377L412.057,124.311L411.858,124.246L411.659,124.182L411.459,124.118L411.259,124.055L411.059,123.992L410.859,123.93L410.659,123.869L410.458,123.808L410.257,123.748L410.055,123.688L409.854,123.629L409.652,123.571L409.45,123.513L409.248,123.456L409.045,123.399L408.842,123.343L408.639,123.288L408.436,123.233L408.232,123.179L408.028,123.125L407.824,123.072L407.62,123.02L407.415,122.969L407.21,122.917L407.005,122.867L406.8,122.817L406.594,122.768L406.389,122.719L406.182,122.671L405.976,122.624L405.77,122.577L405.563,122.531L405.356,122.486L405.148,122.441L404.941,122.397L404.733,122.353L404.525,122.31L404.317,122.268L404.108,122.226L403.9,122.185L403.691,122.145L403.482,122.105L403.272,122.066L403.063,122.027L402.853,121.99L402.643,121.952L402.432,121.916L402.222,121.88L402.011,121.844L401.8,121.81L401.589,121.776L401.377,121.742L401.166,121.71L400.954,121.678L400.742,121.646L400.529,121.615L400.317,121.585L400.104,121.556L399.891,121.527L399.677,121.499L399.464,121.471L399.25,121.444L399.036,121.418L398.822,121.393L398.608,121.368L398.393,121.344L398.179,121.32L397.964,121.297L397.748,121.275L397.533,121.253L397.317,121.232L397.101,121.212L396.885,121.193L396.669,121.174L396.452,121.156L396.236,121.138L396.019,121.121L395.802,121.105L395.584,121.089L395.367,121.075L395.149,121.06L394.931,121.047L394.713,121.034L394.494,121.022L394.276,121.011L394.057,121L393.838,120.99L393.619,120.98L393.399,120.972L393.179,120.964L392.96,120.956L392.74,120.95L392.519,120.944L392.299,120.938L392.078,120.934L391.857,120.93L391.636,120.927L391.415,120.924L391.194,120.923L390.972,120.922L390.737,120.921L222.263,120.921Z" style="fill:rgb(182,169,155);"/>
    </g>
    <g>
        <path d="M366,312L426,312L426,424L96,424L96,312L156,312L156,256L216,256L216,312L306,312L306,256L366,256L366,312ZM168,268L168,324L108,324L108,412L414,412L414,324L354,324L354,268L318,268L318,324L204,324L204,268L168,268Z" style="fill:rgb(182,169,155);"/>
        <g transform="matrix(-1,-1.22465e-16,1.22465e-16,-1,512,534)">
            <path d="M238,256L238,424L416,424L416,256L368,256L368,312L284,312L284,256L238,256Z" style="fill:rgb(182,169,155);"/>
        </g>
    </g>
</svg>
