<?xml version="1.0" encoding="UTF-8" standalone="no"?>
<!DOCTYPE svg PUBLIC "-//W3C//DTD SVG 1.1//EN" "http://www.w3.org/Graphics/SVG/1.1/DTD/svg11.dtd">
<svg width="100%" height="100%" viewBox="0 0 320 43" version="1.1" xmlns="http://www.w3.org/2000/svg" xmlns:xlink="http://www.w3.org/1999/xlink" xml:space="preserve" xmlns:serif="http://www.serif.com/" style="fill-rule:evenodd;clip-rule:evenodd;stroke-linejoin:round;stroke-miterlimit:1.41421;">
    <g transform="matrix(1,0,0,1,-45.0845,-179.138)">
        <g transform="matrix(4.6574,0,0,4.6574,-155.552,-814.67)">
            <path d="M43.416,213.683C43.736,213.635 44.045,213.611 44.342,213.611C44.654,213.611 44.963,213.635 45.267,213.683L47.251,218.637L49.295,213.683C49.544,213.635 49.82,213.611 50.125,213.611C50.43,213.611 50.722,213.635 51.003,213.683L51.412,222.328C51.107,222.377 50.818,222.401 50.546,222.401C50.273,222.401 50.005,222.377 49.74,222.328L49.524,216.461L47.768,220.525C47.656,220.541 47.54,220.555 47.42,220.567C47.299,220.579 47.179,220.585 47.059,220.585C46.955,220.585 46.851,220.581 46.746,220.573C46.642,220.565 46.534,220.549 46.422,220.525L44.786,216.377L44.618,222.328C44.362,222.377 44.113,222.401 43.873,222.401C43.616,222.401 43.352,222.377 43.079,222.328L43.416,213.683Z" style="fill:rgb(55,73,150);fill-rule:nonzero;"/>
            <path d="M55.921,218.288C55.969,218.529 55.993,218.773 55.993,219.022C55.993,219.278 55.969,219.527 55.921,219.767L52.854,219.767C52.806,219.527 52.782,219.282 52.782,219.034C52.782,218.777 52.806,218.529 52.854,218.288L55.921,218.288Z" style="fill:rgb(55,73,150);fill-rule:nonzero;"/>
            <path d="M57.796,217.411L56.991,217.411C56.967,217.306 56.949,217.196 56.937,217.08C56.925,216.964 56.919,216.854 56.919,216.749C56.919,216.533 56.943,216.32 56.991,216.112L59.468,216.112L59.468,222.328C59.179,222.377 58.898,222.401 58.626,222.401C58.361,222.401 58.085,222.377 57.796,222.328L57.796,217.411ZM57.544,215.066C57.496,214.793 57.472,214.525 57.472,214.26C57.472,214.004 57.496,213.735 57.544,213.455C57.68,213.431 57.826,213.413 57.983,213.401C58.139,213.389 58.281,213.383 58.409,213.383C58.546,213.383 58.694,213.389 58.854,213.401C59.015,213.413 59.163,213.431 59.299,213.455C59.323,213.591 59.339,213.725 59.347,213.858C59.355,213.99 59.359,214.124 59.359,214.26C59.359,214.389 59.355,214.521 59.347,214.657C59.339,214.793 59.323,214.93 59.299,215.066C59.163,215.09 59.017,215.106 58.86,215.114C58.704,215.122 58.558,215.126 58.422,215.126C58.293,215.126 58.149,215.122 57.989,215.114C57.828,215.106 57.68,215.09 57.544,215.066Z" style="fill:rgb(55,73,150);fill-rule:nonzero;"/>
            <path d="M61.151,216.112C61.263,216.088 61.375,216.07 61.488,216.058C61.6,216.046 61.724,216.04 61.86,216.04C61.997,216.04 62.117,216.046 62.221,216.058C62.325,216.07 62.433,216.088 62.546,216.112C62.57,216.152 62.592,216.21 62.612,216.286C62.632,216.363 62.65,216.443 62.666,216.527C62.682,216.611 62.696,216.693 62.708,216.773C62.72,216.854 62.73,216.922 62.738,216.978C62.818,216.858 62.914,216.737 63.027,216.617C63.139,216.497 63.269,216.389 63.417,216.292C63.566,216.196 63.732,216.118 63.916,216.058C64.101,215.998 64.305,215.968 64.53,215.968C65.235,215.968 65.766,216.16 66.123,216.545C66.48,216.93 66.658,217.535 66.658,218.361L66.658,222.328C66.369,222.377 66.085,222.401 65.804,222.401C65.524,222.401 65.239,222.377 64.95,222.328L64.95,218.817C64.95,218.385 64.884,218.052 64.752,217.819C64.62,217.587 64.389,217.471 64.061,217.471C63.924,217.471 63.784,217.491 63.64,217.531C63.496,217.571 63.365,217.649 63.249,217.765C63.133,217.882 63.039,218.044 62.967,218.252C62.894,218.461 62.858,218.733 62.858,219.07L62.858,222.328C62.57,222.377 62.285,222.401 62.005,222.401C61.724,222.401 61.44,222.377 61.151,222.328L61.151,216.112Z" style="fill:rgb(55,73,150);fill-rule:nonzero;"/>
            <path d="M71.936,213.539C72.081,213.515 72.223,213.499 72.363,213.491C72.503,213.483 72.642,213.479 72.778,213.479C72.914,213.479 73.055,213.483 73.199,213.491C73.343,213.499 73.487,213.515 73.632,213.539L73.632,222.124C73.255,222.236 72.872,222.322 72.483,222.383C72.095,222.443 71.624,222.473 71.071,222.473C70.646,222.473 70.239,222.415 69.85,222.298C69.461,222.182 69.119,221.998 68.822,221.745C68.526,221.493 68.291,221.166 68.119,220.765C67.946,220.365 67.86,219.876 67.86,219.298C67.86,218.842 67.934,218.411 68.083,218.006C68.231,217.601 68.443,217.25 68.72,216.954C68.997,216.657 69.331,216.423 69.724,216.25C70.117,216.078 70.554,215.992 71.035,215.992C71.179,215.992 71.329,215.998 71.485,216.01C71.642,216.022 71.792,216.048 71.936,216.088L71.936,213.539ZM71.936,217.399C71.776,217.359 71.646,217.333 71.546,217.32C71.445,217.308 71.319,217.302 71.167,217.302C70.902,217.302 70.672,217.357 70.475,217.465C70.279,217.573 70.117,217.717 69.988,217.898C69.86,218.078 69.766,218.29 69.706,218.535C69.646,218.779 69.616,219.034 69.616,219.298C69.616,219.627 69.656,219.906 69.736,220.134C69.816,220.363 69.926,220.545 70.067,220.681C70.207,220.817 70.373,220.916 70.566,220.976C70.758,221.036 70.966,221.066 71.191,221.066C71.327,221.066 71.451,221.06 71.564,221.048C71.676,221.036 71.8,221.01 71.936,220.97L71.936,217.399Z" style="fill:rgb(55,73,150);fill-rule:nonzero;"/>
            <path d="M75.171,216.112C75.459,216.064 75.744,216.04 76.024,216.04C76.305,216.04 76.59,216.064 76.878,216.112L76.878,219.407C76.878,219.735 76.904,220.006 76.956,220.218C77.008,220.431 77.089,220.599 77.197,220.723C77.305,220.847 77.439,220.936 77.6,220.988C77.76,221.04 77.948,221.066 78.165,221.066C78.461,221.066 78.71,221.038 78.91,220.982L78.91,216.112C79.199,216.064 79.479,216.04 79.752,216.04C80.032,216.04 80.317,216.064 80.606,216.112L80.606,222.088C80.349,222.176 80.01,222.262 79.59,222.346C79.169,222.431 78.73,222.473 78.273,222.473C77.864,222.473 77.471,222.441 77.095,222.377C76.718,222.312 76.387,222.176 76.103,221.968C75.818,221.759 75.592,221.455 75.423,221.054C75.255,220.653 75.171,220.12 75.171,219.455L75.171,216.112Z" style="fill:rgb(55,73,150);fill-rule:nonzero;"/>
            <path d="M83.359,219.623C82.91,219.495 82.559,219.304 82.307,219.052C82.054,218.799 81.928,218.421 81.928,217.916C81.928,217.306 82.147,216.83 82.583,216.485C83.02,216.14 83.616,215.968 84.369,215.968C84.682,215.968 84.99,215.996 85.295,216.052C85.599,216.108 85.908,216.192 86.221,216.304C86.205,216.513 86.165,216.729 86.1,216.954C86.036,217.178 85.96,217.375 85.872,217.543C85.68,217.463 85.467,217.393 85.235,217.333C85.002,217.272 84.758,217.242 84.501,217.242C84.229,217.242 84.016,217.284 83.864,217.369C83.712,217.453 83.636,217.587 83.636,217.771C83.636,217.948 83.69,218.072 83.798,218.144C83.906,218.216 84.06,218.284 84.261,218.349L84.946,218.553C85.171,218.617 85.373,218.695 85.553,218.787C85.734,218.88 85.888,218.994 86.016,219.13C86.145,219.266 86.245,219.435 86.317,219.635C86.389,219.835 86.425,220.08 86.425,220.369C86.425,220.665 86.363,220.942 86.239,221.198C86.115,221.455 85.934,221.677 85.698,221.866C85.461,222.054 85.175,222.202 84.838,222.31C84.501,222.419 84.121,222.473 83.696,222.473C83.503,222.473 83.327,222.467 83.167,222.455C83.006,222.443 82.852,222.423 82.704,222.395C82.555,222.367 82.409,222.332 82.265,222.292C82.121,222.252 81.964,222.2 81.796,222.136C81.812,221.92 81.85,221.701 81.91,221.481C81.97,221.26 82.048,221.046 82.145,220.837C82.409,220.942 82.66,221.02 82.896,221.072C83.133,221.124 83.379,221.15 83.636,221.15C83.748,221.15 83.87,221.14 84.002,221.12C84.135,221.1 84.257,221.064 84.369,221.012C84.481,220.96 84.575,220.892 84.652,220.807C84.728,220.723 84.766,220.613 84.766,220.477C84.766,220.284 84.708,220.146 84.591,220.062C84.475,219.978 84.313,219.904 84.105,219.839L83.359,219.623Z" style="fill:rgb(55,73,150);fill-rule:nonzero;"/>
            <path d="M87.856,217.411L87.074,217.411L87.014,217.17L89.263,214.296L89.539,214.296L89.539,216.112L90.994,216.112C91.018,216.232 91.034,216.341 91.042,216.437C91.05,216.533 91.054,216.633 91.054,216.737C91.054,216.85 91.05,216.958 91.042,217.062C91.034,217.166 91.018,217.282 90.994,217.411L89.539,217.411L89.539,219.852C89.539,220.1 89.559,220.3 89.599,220.453C89.64,220.605 89.698,220.725 89.774,220.813C89.85,220.902 89.944,220.962 90.056,220.994C90.169,221.026 90.301,221.042 90.453,221.042C90.573,221.042 90.692,221.032 90.808,221.012C90.924,220.992 91.026,220.974 91.114,220.958C91.171,221.11 91.211,221.268 91.235,221.433C91.259,221.597 91.271,221.743 91.271,221.872C91.271,221.96 91.269,222.034 91.265,222.094C91.261,222.154 91.255,222.212 91.247,222.268C90.878,222.356 90.497,222.401 90.104,222.401C89.375,222.401 88.818,222.23 88.433,221.89C88.048,221.549 87.856,220.994 87.856,220.224L87.856,217.411Z" style="fill:rgb(55,73,150);fill-rule:nonzero;"/>
            <path d="M92.293,216.112C92.413,216.088 92.527,216.07 92.635,216.058C92.744,216.046 92.862,216.04 92.99,216.04C93.11,216.04 93.229,216.048 93.345,216.064C93.461,216.08 93.575,216.1 93.688,216.124C93.712,216.164 93.734,216.222 93.754,216.298C93.774,216.375 93.792,216.455 93.808,216.539C93.824,216.623 93.838,216.707 93.85,216.791C93.862,216.876 93.872,216.946 93.88,217.002C94.056,216.753 94.273,216.531 94.529,216.335C94.786,216.138 95.106,216.04 95.491,216.04C95.571,216.04 95.663,216.044 95.768,216.052C95.872,216.06 95.948,216.072 95.996,216.088C96.012,216.168 96.024,216.26 96.032,216.365C96.04,216.469 96.044,216.577 96.044,216.689C96.044,216.825 96.038,216.974 96.026,217.134C96.014,217.294 95.992,217.447 95.96,217.591C95.872,217.575 95.774,217.567 95.665,217.567C95.557,217.567 95.491,217.567 95.467,217.567C95.331,217.567 95.179,217.581 95.01,217.609C94.842,217.637 94.682,217.711 94.529,217.831C94.377,217.952 94.251,218.132 94.15,218.373C94.05,218.613 94,218.95 94,219.383L94,222.34C93.856,222.364 93.712,222.381 93.567,222.389C93.423,222.397 93.283,222.401 93.146,222.401C93.01,222.401 92.872,222.397 92.732,222.389C92.591,222.381 92.445,222.364 92.293,222.34L92.293,216.112Z" style="fill:rgb(55,73,150);fill-rule:nonzero;"/>
            <g transform="matrix(1,0,0,1,0.214712,0)">
                <path d="M97.463,217.411L96.657,217.411C96.633,217.306 96.615,217.196 96.603,217.08C96.591,216.964 96.585,216.854 96.585,216.749C96.585,216.533 96.609,216.32 96.657,216.112L99.134,216.112L99.134,222.328C98.846,222.377 98.565,222.401 98.293,222.401C98.028,222.401 97.752,222.377 97.463,222.328L97.463,217.411ZM97.211,215.066C97.162,214.793 97.138,214.525 97.138,214.26C97.138,214.004 97.162,213.735 97.211,213.455C97.347,213.431 97.493,213.413 97.649,213.401C97.806,213.389 97.948,213.383 98.076,213.383C98.213,213.383 98.361,213.389 98.521,213.401C98.681,213.413 98.83,213.431 98.966,213.455C98.99,213.591 99.006,213.725 99.014,213.858C99.022,213.99 99.026,214.124 99.026,214.26C99.026,214.389 99.022,214.521 99.014,214.657C99.006,214.793 98.99,214.93 98.966,215.066C98.83,215.09 98.683,215.106 98.527,215.114C98.371,215.122 98.225,215.126 98.088,215.126C97.96,215.126 97.816,215.122 97.655,215.114C97.495,215.106 97.347,215.09 97.211,215.066Z" style="fill:rgb(55,73,150);fill-rule:nonzero;"/>
            </g>
            <path d="M102.176,219.743C102.208,220.224 102.377,220.573 102.681,220.789C102.986,221.006 103.387,221.114 103.884,221.114C104.156,221.114 104.435,221.088 104.719,221.036C105.004,220.984 105.275,220.91 105.531,220.813C105.619,220.974 105.695,221.166 105.76,221.391C105.824,221.615 105.86,221.855 105.868,222.112C105.242,222.352 104.537,222.473 103.752,222.473C103.174,222.473 102.679,222.393 102.267,222.232C101.854,222.072 101.517,221.849 101.257,221.565C100.996,221.28 100.804,220.942 100.679,220.549C100.555,220.156 100.493,219.727 100.493,219.262C100.493,218.805 100.557,218.377 100.685,217.976C100.814,217.575 101.004,217.226 101.257,216.93C101.509,216.633 101.822,216.399 102.194,216.226C102.567,216.054 103.002,215.968 103.499,215.968C103.932,215.968 104.317,216.044 104.653,216.196C104.99,216.349 105.277,216.557 105.513,216.821C105.749,217.086 105.928,217.401 106.048,217.765C106.168,218.13 106.228,218.521 106.228,218.938C106.228,219.09 106.222,219.24 106.21,219.389C106.198,219.537 106.184,219.655 106.168,219.743L102.176,219.743ZM104.617,218.553C104.601,218.168 104.495,217.858 104.299,217.621C104.102,217.385 103.828,217.266 103.475,217.266C103.074,217.266 102.77,217.379 102.561,217.603C102.353,217.827 102.229,218.144 102.188,218.553L104.617,218.553Z" style="fill:rgb(55,73,150);fill-rule:nonzero;"/>
            <g transform="matrix(1,0,0,1,-0.214712,0)">
                <path d="M108.778,219.623C108.329,219.495 107.978,219.304 107.725,219.052C107.473,218.799 107.347,218.421 107.347,217.916C107.347,217.306 107.565,216.83 108.002,216.485C108.439,216.14 109.034,215.968 109.788,215.968C110.1,215.968 110.409,215.996 110.713,216.052C111.018,216.108 111.327,216.192 111.639,216.304C111.623,216.513 111.583,216.729 111.519,216.954C111.455,217.178 111.379,217.375 111.29,217.543C111.098,217.463 110.886,217.393 110.653,217.333C110.421,217.272 110.176,217.242 109.92,217.242C109.647,217.242 109.435,217.284 109.283,217.369C109.13,217.453 109.054,217.587 109.054,217.771C109.054,217.948 109.108,218.072 109.216,218.144C109.325,218.216 109.479,218.284 109.679,218.349L110.365,218.553C110.589,218.617 110.792,218.695 110.972,218.787C111.152,218.88 111.307,218.994 111.435,219.13C111.563,219.266 111.663,219.435 111.735,219.635C111.808,219.835 111.844,220.08 111.844,220.369C111.844,220.665 111.781,220.942 111.657,221.198C111.533,221.455 111.353,221.677 111.116,221.866C110.88,222.054 110.593,222.202 110.256,222.31C109.92,222.419 109.539,222.473 109.114,222.473C108.922,222.473 108.745,222.467 108.585,222.455C108.425,222.443 108.271,222.423 108.122,222.395C107.974,222.367 107.828,222.332 107.683,222.292C107.539,222.252 107.383,222.2 107.214,222.136C107.23,221.92 107.269,221.701 107.329,221.481C107.389,221.26 107.467,221.046 107.563,220.837C107.828,220.942 108.078,221.02 108.315,221.072C108.551,221.124 108.798,221.15 109.054,221.15C109.166,221.15 109.289,221.14 109.421,221.12C109.553,221.1 109.675,221.064 109.788,221.012C109.9,220.96 109.994,220.892 110.07,220.807C110.146,220.723 110.184,220.613 110.184,220.477C110.184,220.284 110.126,220.146 110.01,220.062C109.894,219.978 109.731,219.904 109.523,219.839L108.778,219.623Z" style="fill:rgb(55,73,150);fill-rule:nonzero;"/>
            </g>
        </g>
    </g>
</svg>
